<?xml version="1.0" encoding="utf-8"?>
<!-- Generator: Adobe Illustrator 27.5.0, SVG Export Plug-In . SVG Version: 6.00 Build 0)  -->
<svg version="1.1" xmlns="http://www.w3.org/2000/svg" xmlns:xlink="http://www.w3.org/1999/xlink" x="0px" y="0px"
	 viewBox="0 0 500 500" style="enable-background:new 0 0 500 500;" xml:space="preserve">
<g id="background">
	<rect style="fill:#FFFFFF;" width="500" height="500"/>
</g>
<g id="objects">
	<g>
		<g>
			<g>
				<path style="fill:#E2AD94;" d="M78.597,197.731c-2.949,0-6.256-0.217-9.94-0.647c-10.324-1.205-19.905-3.683-20.308-3.787
					c-2.672-0.696-4.274-3.426-3.579-6.098c0.695-2.672,3.425-4.276,6.097-3.58c0.09,0.023,9.129,2.357,18.622,3.494
					c13.663,1.636,17.827-0.493,18.195-1.152c4.266-9.799,10.78-41.208,10.845-41.524c0.558-2.705,3.206-4.446,5.908-3.885
					c2.705,0.559,4.444,3.204,3.885,5.908c-0.275,1.332-6.792,32.748-11.47,43.495C94.574,195.19,88.691,197.731,78.597,197.731z"/>
			</g>
			<g>
				<path style="fill:#4C80BD;" d="M105.937,175.048c0,0-4.97,0.851-8.417,0c-4.631-1.143-8.833-3.854-8.833-3.854
					s3.764-24.374,7.273-31.538c1.957-3.995,7.912-7.244,7.912-7.244l14.295,9.694L105.937,175.048z"/>
			</g>
			<g>
				<path style="fill:#EABA98;" d="M146.425,229.617c-2.162,0-4.155-1.413-4.795-3.592c-2.863-9.746-11.341-36.633-16.13-43.911
					c-6.072-9.23-25.823-34.675-26.021-34.931c-1.694-2.181-1.299-5.322,0.882-7.016c2.18-1.694,5.322-1.299,7.016,0.882
					c0.822,1.058,20.193,26.015,26.478,35.569c6.473,9.839,16.274,42.856,17.37,46.589c0.778,2.649-0.739,5.428-3.388,6.207
					C147.366,229.551,146.891,229.617,146.425,229.617z"/>
			</g>
			<g>
				<path style="fill:#538ECB;" d="M130.478,166.757c0,0-0.313,3.813-4.17,6.662c-5.143,3.799-9.393,3.088-9.393,3.088
					s-18.625-19.75-21.812-27.063c-1.777-4.078,0.856-9.788,0.856-9.788l16.644-4.618l5.934,11.047L130.478,166.757z"/>
			</g>
			<path style="fill:#EABA98;" d="M121.004,91.146c-0.359-2.739-2.872-4.667-5.608-4.307c-14.757,1.936-24.736,4.765-29.659,8.409
				c-9.087,6.724-18.957,27.394-20.052,29.728c-0.485,1.033-0.567,2.142-0.342,3.177c0.267,1.958,1.489,3.744,3.415,4.637
				c0.818,0.38,1.677,0.56,2.522,0.56c2.263,0,4.43-1.287,5.446-3.475l1.059-2.281c0.716-1.542,0.717-3.231,0.146-4.699
				c4.066-7.601,9.664-16.58,13.755-19.608c3.342-2.474,12.692-4.915,25.011-6.532C119.435,96.394,121.363,93.883,121.004,91.146z"
				/>
			<path style="fill:#E2AD94;" d="M163.255,120.252c-1.23-3.077-4.724-4.574-7.799-3.342l-2.335,0.934
				c-1.735,0.694-2.967,2.107-3.491,3.759c-8.034,3.32-15.535,4.721-16.954,2.805c-3.479-4.702-3.966-20.782-3.201-30.699
				c0.212-2.753-1.846-5.157-4.599-5.371c-2.763-0.214-5.157,1.844-5.371,4.597c-0.358,4.607-1.794,28.061,5.132,37.421
				c2.64,3.568,6.717,4.86,11.243,4.859c7.684-0.001,16.65-3.726,22.045-6.369l1.987-0.795
				C162.99,126.82,164.486,123.329,163.255,120.252z"/>
			<g>
				<path style="fill:#EABA98;" d="M120.578,99.795c-0.357,0-0.72-0.038-1.083-0.119c-2.696-0.595-4.399-3.264-3.804-5.961
					l3.072-13.912c0.596-2.696,3.267-4.395,5.96-3.804c2.696,0.595,4.4,3.264,3.804,5.961l-3.072,13.912
					C124.94,98.205,122.873,99.795,120.578,99.795z"/>
			</g>
			<g>
				<path style="fill:#9E272A;" d="M131.956,97.19l-0.509,21.942c0,0-2.852,1.75-7.104,1.861c-3.561,0.093-6.734-0.922-6.734-0.922
					l-0.585-22.492L131.956,97.19z"/>
			</g>
			<g>
				<path style="fill:#AD252B;" d="M118.537,146.085c0,0-4.516,0.585-12.246-1.829c-5.07-1.583-10.332-4.599-10.332-4.599
					l13.616-47.818c1.222-4.293,5.694-6.782,9.987-5.56l5.15,1.466c5.332,1.518,8.423,7.071,6.905,12.403L118.537,146.085z"/>
			</g>
			<g>
				<path style="fill:#B52840;" d="M115.471,100.584l-13.636,0.761c0,0-1.388-2.216-1.926-6.436
					c-0.451-3.534,0.239-6.792,0.239-6.792l16.479-2.102c3.226-0.411,6.174,1.87,6.586,5.096l0.019,0.148
					C123.84,96.03,120.273,100.316,115.471,100.584z"/>
			</g>
			<g>
				<path style="fill:#EABA98;" d="M132.907,84.808l-9.87-0.525c-3.218-0.158-5.698-2.895-5.54-6.112l1.529-31.129l8.781,0.431
					c8.941,0.439,15.833,8.043,15.394,16.984l-1.431,12.318C141.541,81.44,137.573,85.037,132.907,84.808z"/>
			</g>
			<g>
				<path style="fill:#EABA98;" d="M141.52,63.215l3.202,7.632c0.475,1.132-0.216,2.414-1.423,2.64l-2.112,0.395L141.52,63.215z"/>
			</g>
			<g>
				<path style="fill:#472514;" d="M145.487,46.264c0.196-1.223,0.2-2.043,0.2-2.043c-5.136,1.447-18.104-3.318-26.854-0.297
					c-1.521,0.525-4.188,2.292-4.604,5.209c-5.125,0.458-6.375,8.109-6.375,13c0,16.625,10.729,19.722,10.729,19.722l3.604-13.305
					c0-5,4.042-11.729,7.292-11.729c2.404,0,6.526,0.074,9.111-0.668l0.002,0.001c0,0,8.638-0.083,8.638-10.395
					C147.228,45.757,146.761,45.959,145.487,46.264z"/>
			</g>
			<g>
				<path style="fill:#EABA98;" d="M126.24,70.132c0,2.946-2.388,5.333-5.333,5.333c-2.945,0-5.333-2.388-5.333-5.333
					c0-2.946,2.388-5.333,5.333-5.333C123.852,64.799,126.24,67.186,126.24,70.132z"/>
			</g>
			<g>
				<g>
					<path style="fill:#3E465E;" d="M140.833,225.438c-0.345,1.272-0.752,4.056,0.506,8.188c0,0,2.712,0.569,6.224-0.145
						c3.513-0.714,5.188-1.468,6.265-1.687c1.076-0.219,3.517,0.76,10.826-0.727c7.309-1.486,7.941-2.146,9.273-4.01
						c-2.201-3.63-6.981-1.557-11.497-2.729c-1.41-0.366-4.888-2.022-8.141-2.934c0,0-2.149-2.348-3.991-3.188
						c-0.208-0.095-0.452-0.064-0.619,0.092c-0.442,0.413-1.233,1.341-0.941,2.493c0.246,0.969,0.72,1.592,1.048,1.927
						c0.189,0.194,0.183,0.507-0.016,0.691c-0.882,0.817-3.394,2.563-7.926,1.439C141.406,224.741,140.952,225,140.833,225.438z"/>
				</g>
				<g>
					<path style="fill:#538ECB;" d="M141.339,233.625c0,0,2.712,0.569,6.224-0.145c3.513-0.714,5.188-1.468,6.265-1.687
						c1.076-0.219,3.517,0.76,10.826-0.727c7.309-1.486,7.941-2.146,9.273-4.01c0.094,0.091,0.166,0.232,0.221,0.397
						c0.293,0.882,0.008,1.848-0.639,2.515c-1.076,1.11-3.411,2.353-7.28,3.14c-5.892,1.198-8.914,0.65-11.634,1.203
						c-2.719,0.553-3.048,1.643-6.826,2.411c-3.162,0.643-5.337,0.313-5.961,0.189c-0.116-0.023-0.214-0.1-0.262-0.208
						C140.854,235.119,141.339,233.625,141.339,233.625z"/>
				</g>
				<g>
					<path style="fill:#538ECB;" d="M149.843,223.31c0.116-0.184,0.104-0.427-0.056-0.59c-0.328-0.335-0.802-0.959-1.048-1.927
						c-0.292-1.152,0.499-2.081,0.941-2.493c0.167-0.156,0.411-0.187,0.619-0.092c1.842,0.839,3.991,3.188,3.991,3.188
						c3.253,0.912,6.731,2.568,8.141,2.934c1.074,0.279,2.163,0.372,3.229,0.404c-0.372,0.198-0.946,0.395-1.845,0.552
						c-3.046,0.534-7.089-2.731-9.593-3.318c-2.504-0.587-4.373,1.347-4.373,1.347S149.845,223.311,149.843,223.31z"/>
				</g>
				<g>
					<path style="fill:#E6E6E5;" d="M160.957,226.098l0.01,0.003c0.263,0.082,0.567-0.058,0.68-0.313l0.587-1.464
						c0.113-0.254-0.008-0.527-0.271-0.608l-0.01-0.003c-0.263-0.082-0.567,0.058-0.68,0.313l-0.587,1.464
						C160.573,225.744,160.695,226.016,160.957,226.098z"/>
				</g>
				<g>
					<path style="fill:#E6E6E5;" d="M158.968,225.342l0.01,0.003c0.263,0.082,0.567-0.058,0.68-0.313l0.587-1.464
						c0.113-0.254-0.008-0.527-0.271-0.608l-0.01-0.003c-0.263-0.082-0.567,0.058-0.68,0.312l-0.587,1.464
						C158.583,224.988,158.705,225.261,158.968,225.342z"/>
				</g>
				<g>
					<path style="fill:#E6E6E5;" d="M156.978,224.587l0.01,0.003c0.263,0.082,0.567-0.058,0.68-0.313l0.587-1.464
						c0.113-0.254-0.008-0.527-0.271-0.608l-0.01-0.003c-0.263-0.082-0.567,0.058-0.68,0.313l-0.587,1.464
						C156.594,224.233,156.715,224.505,156.978,224.587z"/>
				</g>
				<g>
					<path style="fill:#E6E6E5;" d="M154.988,223.832l0.01,0.003c0.263,0.082,0.567-0.058,0.68-0.312l0.587-1.464
						c0.113-0.254-0.009-0.527-0.271-0.608l-0.01-0.003c-0.263-0.082-0.567,0.058-0.68,0.313l-0.587,1.464
						C154.604,223.478,154.726,223.75,154.988,223.832z"/>
				</g>
			</g>
			<g>
				<g>
					<path style="fill:#3E465E;" d="M52.286,183.328c-0.912-0.952-3.085-2.738-7.274-3.794c0,0-1.888,2.028-3.09,5.405
						c-1.202,3.377-1.422,5.201-1.79,6.236c-0.368,1.035-2.467,2.62-4.967,9.647c-2.501,7.026-2.262,7.909-1.354,10.012
						c4.245-0.01,4.937-5.175,8.273-8.437c1.042-1.019,4.255-3.142,6.716-5.457c0,0,3.12-0.628,4.79-1.772
						c0.189-0.129,0.288-0.354,0.24-0.578c-0.125-0.592-0.512-1.748-1.65-2.093c-0.957-0.29-1.735-0.205-2.191-0.098
						c-0.264,0.062-0.528-0.105-0.583-0.37c-0.245-1.177-0.443-4.23,2.86-7.531C52.587,184.178,52.599,183.655,52.286,183.328z"/>
				</g>
				<g>
					<path style="fill:#538ECB;" d="M45.013,179.534c0,0-1.888,2.028-3.09,5.405c-1.202,3.377-1.422,5.201-1.79,6.236
						c-0.368,1.035-2.467,2.62-4.967,9.647c-2.501,7.026-2.262,7.909-1.354,10.012c-0.127,0.034-0.285,0.023-0.454-0.015
						c-0.906-0.204-1.586-0.947-1.824-1.846c-0.395-1.495-0.254-4.136,1.07-7.856c2.016-5.665,4.046-7.97,4.976-10.585
						c0.931-2.615,0.167-3.459,1.459-7.09c1.082-3.04,2.487-4.732,2.916-5.202c0.079-0.087,0.196-0.132,0.313-0.117
						C43.984,178.347,45.013,179.534,45.013,179.534z"/>
				</g>
				<g>
					<path style="fill:#538ECB;" d="M49.456,192.143c0.098,0.194,0.313,0.309,0.534,0.257c0.456-0.107,1.235-0.192,2.191,0.098
						c1.138,0.345,1.524,1.501,1.65,2.093c0.047,0.224-0.052,0.448-0.24,0.578c-1.67,1.145-4.79,1.772-4.79,1.772
						c-2.461,2.315-5.674,4.439-6.716,5.457c-0.793,0.776-1.435,1.661-2.013,2.557c0.022-0.421,0.151-1.014,0.48-1.865
						c1.115-2.884,5.999-4.661,7.795-6.502c1.796-1.841,1.104-4.441,1.104-4.441S49.455,192.143,49.456,192.143z"/>
				</g>
				<g>
					<path style="fill:#E6E6E5;" d="M41.33,200.221l-0.007,0.007c-0.206,0.183-0.243,0.516-0.083,0.744l0.951,1.259
						c0.16,0.228,0.456,0.265,0.661,0.082l0.007-0.007c0.206-0.183,0.243-0.516,0.083-0.744l-0.951-1.259
						C41.832,200.075,41.536,200.039,41.33,200.221z"/>
				</g>
				<g>
					<path style="fill:#E6E6E5;" d="M43.005,198.908l-0.007,0.007c-0.206,0.183-0.243,0.516-0.083,0.744l0.951,1.259
						c0.16,0.228,0.455,0.265,0.661,0.082l0.008-0.007c0.206-0.183,0.243-0.516,0.083-0.744l-0.951-1.259
						C43.506,198.761,43.21,198.725,43.005,198.908z"/>
				</g>
				<g>
					<path style="fill:#E6E6E5;" d="M44.679,197.594l-0.007,0.007c-0.206,0.183-0.243,0.516-0.084,0.744l0.951,1.259
						c0.16,0.228,0.455,0.265,0.661,0.082l0.008-0.007c0.206-0.183,0.243-0.516,0.083-0.744l-0.951-1.259
						C45.18,197.447,44.884,197.411,44.679,197.594z"/>
				</g>
				<g>
					<path style="fill:#E6E6E5;" d="M46.353,196.28l-0.007,0.007c-0.206,0.183-0.243,0.516-0.083,0.744l0.951,1.258
						c0.16,0.228,0.456,0.265,0.661,0.082l0.007-0.007c0.206-0.183,0.243-0.516,0.083-0.744l-0.951-1.258
						C46.854,196.133,46.558,196.097,46.353,196.28z"/>
				</g>
			</g>
		</g>
		<g>
			<path style="fill:#E2AD94;" d="M122.999,311.044c-0.359-2.738-2.872-4.662-5.608-4.308c-14.757,1.937-24.736,4.766-29.659,8.408
				c-10.104,7.478-8.453,29.64-8.019,34.007c0.21,2.117,1.719,3.773,3.653,4.307c0.8,0.395,1.697,0.619,2.641,0.619
				c0.106,0,0.213-0.003,0.32-0.008c3.309-0.174,5.851-2.997,5.677-6.307l-0.132-2.512c-0.099-1.895-1.071-3.529-2.502-4.554
				c0.095-7.336,1.282-15.275,4.309-17.515c3.343-2.474,12.693-4.916,25.012-6.532C121.43,316.293,123.359,313.782,122.999,311.044z
				"/>
			<g>
				<path style="fill:#9E272A;" d="M117.466,320.482l-13.636,0.761c0,0-1.388-2.216-1.926-6.436
					c-0.451-3.534,0.239-6.792,0.239-6.792l16.479-2.102c3.226-0.411,6.174,1.87,6.586,5.096l0.019,0.148
					C125.835,315.929,122.268,320.214,117.466,320.482z"/>
			</g>
			<g>
				<path style="fill:#EABA98;" d="M142.822,450.336c-2.466,0-4.612-1.823-4.949-4.335c-1.84-13.705-6.285-37.768-10.378-43.989
					c-6.072-9.229-25.823-34.675-26.021-34.931c-1.694-2.182-1.299-5.322,0.882-7.017c2.18-1.692,5.322-1.298,7.016,0.882
					c0.822,1.058,20.193,26.016,26.478,35.569c6.684,10.159,11.417,44.297,11.935,48.155c0.367,2.737-1.554,5.253-4.29,5.62
					C143.268,450.321,143.044,450.336,142.822,450.336z"/>
			</g>
			<g>
				<path style="fill:#4C80BD;" d="M132.474,386.655c0,0-0.313,3.813-4.17,6.662c-5.143,3.799-9.393,3.088-9.393,3.088
					s-18.625-19.75-21.813-27.063c-1.777-4.078,0.856-9.788,0.856-9.788l16.644-4.618l5.934,11.047L132.474,386.655z"/>
			</g>
			<g>
				<g>
					<path style="fill:#3E465E;" d="M136.921,443.498c-0.441,1.242-1.061,3.986-0.124,8.203c0,0,2.66,0.776,6.217,0.334
						c3.557-0.443,5.286-1.065,6.376-1.201c1.09-0.136,3.449,1.027,10.85,0.107c7.401-0.921,8.083-1.53,9.554-3.286
						c-1.916-3.789-6.84-2.088-11.253-3.604c-1.378-0.473-4.718-2.391-7.892-3.55c0,0-1.962-2.506-3.734-3.485
						c-0.2-0.111-0.445-0.098-0.624,0.045c-0.472,0.378-1.332,1.242-1.129,2.414c0.17,0.985,0.596,1.643,0.896,2.002
						c0.174,0.208,0.144,0.519-0.069,0.688c-0.942,0.747-3.581,2.295-8.013,0.826C137.545,442.848,137.072,443.072,136.921,443.498z
						"/>
				</g>
				<g>
					<path style="fill:#538ECB;" d="M136.797,451.701c0,0,2.66,0.776,6.217,0.334c3.557-0.443,5.286-1.065,6.376-1.201
						c1.09-0.136,3.449,1.027,10.85,0.107c7.401-0.921,8.083-1.53,9.554-3.286c0.087,0.098,0.148,0.244,0.19,0.413
						c0.225,0.901-0.134,1.843-0.83,2.458c-1.158,1.024-3.581,2.084-7.5,2.572c-5.967,0.742-8.938-0.036-11.692,0.306
						c-2.754,0.342-3.166,1.404-6.99,1.879c-3.202,0.398-5.345-0.097-5.958-0.269c-0.113-0.032-0.206-0.116-0.245-0.227
						C136.198,453.153,136.797,451.701,136.797,451.701z"/>
				</g>
				<g>
					<path style="fill:#538ECB;" d="M146.068,442.07c0.13-0.175,0.136-0.418-0.01-0.593c-0.301-0.359-0.726-1.017-0.896-2.002
						c-0.203-1.171,0.657-2.036,1.129-2.414c0.179-0.143,0.424-0.155,0.624-0.045c1.772,0.978,3.734,3.485,3.734,3.485
						c3.174,1.159,6.514,3.077,7.892,3.55c1.05,0.361,2.128,0.537,3.189,0.651c-0.386,0.169-0.974,0.321-1.882,0.409
						c-3.078,0.299-6.858-3.268-9.309-4.045c-2.451-0.778-4.464,1.007-4.464,1.007S146.069,442.07,146.068,442.07z"/>
				</g>
				<g>
					<path style="fill:#E6E6E5;" d="M156.935,445.702l0.009,0.004c0.256,0.102,0.57-0.014,0.702-0.259l0.698-1.414
						c0.132-0.245,0.032-0.526-0.224-0.627l-0.009-0.004c-0.256-0.102-0.57,0.014-0.702,0.259l-0.698,1.414
						C156.579,445.32,156.679,445.601,156.935,445.702z"/>
				</g>
				<g>
					<path style="fill:#E6E6E5;" d="M155.009,444.796l0.009,0.004c0.256,0.102,0.57-0.014,0.702-0.259l0.698-1.414
						c0.132-0.245,0.032-0.526-0.224-0.627l-0.009-0.004c-0.256-0.102-0.57,0.015-0.702,0.259l-0.698,1.415
						C154.653,444.414,154.753,444.695,155.009,444.796z"/>
				</g>
				<g>
					<path style="fill:#E6E6E5;" d="M153.083,443.891l0.009,0.004c0.256,0.102,0.57-0.014,0.702-0.259l0.698-1.414
						c0.132-0.245,0.032-0.526-0.224-0.628l-0.009-0.004c-0.256-0.102-0.57,0.014-0.702,0.259l-0.698,1.415
						C152.727,443.508,152.828,443.789,153.083,443.891z"/>
				</g>
				<g>
					<path style="fill:#E6E6E5;" d="M151.158,442.985l0.009,0.004c0.256,0.102,0.57-0.014,0.702-0.259l0.698-1.414
						c0.132-0.245,0.032-0.526-0.224-0.628l-0.009-0.004c-0.256-0.102-0.57,0.014-0.702,0.259l-0.698,1.415
						C150.802,442.602,150.902,442.883,151.158,442.985z"/>
				</g>
			</g>
			<g>
				<path style="fill:#EABA98;" d="M82.811,416.068c-2.949,0-6.257-0.217-9.94-0.646c-10.324-1.205-19.905-3.683-20.308-3.787
					c-2.672-0.696-4.274-3.426-3.579-6.098c0.695-2.672,3.424-4.273,6.097-3.58c0.09,0.023,9.128,2.357,18.621,3.493
					c13.664,1.638,17.829-0.492,18.197-1.152c3.492-8.021,7.374-31.353,8.574-39.666c0.395-2.733,2.929-4.629,5.663-4.233
					c2.733,0.395,4.628,2.93,4.234,5.663c-0.184,1.274-4.565,31.344-9.304,42.23C98.787,413.527,92.906,416.068,82.811,416.068z"/>
			</g>
			<g>
				<path style="fill:#538ECB;" d="M107.932,398.196c0,0-4.97,0.851-8.417,0c-4.631-1.143-8.833-3.854-8.833-3.854
					s3.764-27.623,7.273-34.787c1.957-3.995,7.912-7.244,7.912-7.244l14.665,13.673L107.932,398.196z"/>
			</g>
			<g>
				<path style="fill:#EABA98;" d="M122.574,319.693c-0.357,0-0.72-0.038-1.083-0.118c-2.696-0.596-4.399-3.265-3.804-5.961
					l3.072-13.912c0.596-2.696,3.267-4.397,5.96-3.805c2.696,0.596,4.4,3.265,3.804,5.961l-3.072,13.912
					C126.936,318.104,124.868,319.693,122.574,319.693z"/>
			</g>
			<g>
				<path style="fill:#AD252B;" d="M120.532,365.983c0,0-4.516,0.585-12.246-1.829c-5.07-1.583-10.332-4.6-10.332-4.6l13.616-47.818
					c1.222-4.293,5.694-6.782,9.987-5.56l5.15,1.467c5.332,1.518,8.423,7.071,6.905,12.403L120.532,365.983z"/>
			</g>
			<g>
				<path style="fill:#EABA98;" d="M134.902,304.706l-9.87-0.525c-3.218-0.158-5.698-2.895-5.54-6.112l1.529-31.129l8.781,0.431
					c8.941,0.439,15.833,8.043,15.394,16.984l-1.431,12.319C143.536,301.339,139.568,304.935,134.902,304.706z"/>
			</g>
			<g>
				<path style="fill:#EABA98;" d="M143.515,283.113l3.202,7.632c0.475,1.132-0.216,2.414-1.423,2.64l-2.112,0.395L143.515,283.113z
					"/>
			</g>
			<g>
				<path style="fill:#472514;" d="M147.482,266.162c0.196-1.223,0.2-2.043,0.2-2.043c-5.136,1.447-18.104-3.318-26.854-0.297
					c-1.522,0.525-4.188,2.292-4.604,5.209c-5.125,0.458-6.375,8.109-6.375,13c0,16.625,10.729,19.721,10.729,19.721l3.604-13.305
					c0-5,4.042-11.729,7.292-11.729c2.404,0,6.526,0.074,9.111-0.668l0.002,0.001c0,0,8.638-0.083,8.638-10.395
					C149.224,265.655,148.756,265.857,147.482,266.162z"/>
			</g>
			<g>
				<path style="fill:#EABA98;" d="M128.236,290.03c0,2.945-2.388,5.333-5.333,5.333c-2.946,0-5.333-2.388-5.333-5.333
					c0-2.946,2.388-5.333,5.333-5.333C125.848,284.697,128.236,287.085,128.236,290.03z"/>
			</g>
			<g>
				<g>
					<path style="fill:#3E465E;" d="M56.5,401.665c-0.912-0.952-3.085-2.738-7.274-3.794c0,0-1.888,2.028-3.09,5.405
						c-1.202,3.377-1.422,5.201-1.79,6.236c-0.368,1.035-2.467,2.62-4.967,9.647c-2.501,7.026-2.262,7.909-1.354,10.012
						c4.245-0.011,4.937-5.175,8.273-8.437c1.042-1.019,4.255-3.142,6.716-5.457c0,0,3.12-0.628,4.79-1.772
						c0.188-0.129,0.288-0.354,0.24-0.578c-0.125-0.592-0.512-1.748-1.65-2.093c-0.957-0.29-1.735-0.205-2.191-0.098
						c-0.264,0.062-0.528-0.105-0.583-0.37c-0.245-1.177-0.443-4.23,2.86-7.531C56.801,402.516,56.814,401.992,56.5,401.665z"/>
				</g>
				<g>
					<path style="fill:#538ECB;" d="M49.227,397.871c0,0-1.888,2.028-3.09,5.405c-1.202,3.377-1.422,5.201-1.79,6.236
						c-0.368,1.035-2.467,2.62-4.967,9.647c-2.501,7.026-2.262,7.909-1.354,10.012c-0.127,0.034-0.285,0.023-0.454-0.016
						c-0.906-0.204-1.586-0.947-1.824-1.846c-0.395-1.495-0.254-4.136,1.07-7.856c2.016-5.665,4.046-7.97,4.976-10.585
						c0.93-2.615,0.167-3.459,1.459-7.09c1.082-3.04,2.487-4.732,2.916-5.203c0.079-0.087,0.196-0.132,0.313-0.117
						C48.199,396.685,49.227,397.871,49.227,397.871z"/>
				</g>
				<g>
					<path style="fill:#538ECB;" d="M53.67,410.48c0.098,0.194,0.313,0.309,0.535,0.257c0.456-0.107,1.235-0.192,2.191,0.098
						c1.138,0.345,1.524,1.501,1.65,2.093c0.047,0.224-0.052,0.448-0.24,0.578c-1.67,1.145-4.79,1.772-4.79,1.772
						c-2.461,2.316-5.674,4.439-6.716,5.457c-0.794,0.776-1.435,1.661-2.013,2.557c0.022-0.421,0.151-1.014,0.48-1.865
						c1.115-2.884,5.999-4.661,7.795-6.502c1.796-1.841,1.104-4.44,1.104-4.44S53.669,410.481,53.67,410.48z"/>
				</g>
				<g>
					<path style="fill:#E6E6E5;" d="M45.545,418.559l-0.008,0.007c-0.206,0.183-0.243,0.516-0.083,0.744l0.951,1.258
						c0.16,0.228,0.455,0.265,0.661,0.082l0.007-0.007c0.206-0.183,0.243-0.516,0.084-0.744l-0.951-1.259
						C46.046,418.413,45.75,418.376,45.545,418.559z"/>
				</g>
				<g>
					<path style="fill:#E6E6E5;" d="M47.219,417.245l-0.007,0.007c-0.206,0.183-0.243,0.516-0.084,0.744l0.951,1.259
						c0.16,0.228,0.455,0.265,0.661,0.082l0.007-0.007c0.206-0.183,0.243-0.516,0.083-0.744l-0.951-1.259
						C47.72,417.099,47.424,417.062,47.219,417.245z"/>
				</g>
				<g>
					<path style="fill:#E6E6E5;" d="M48.893,415.931l-0.007,0.007c-0.206,0.183-0.243,0.516-0.083,0.744l0.951,1.258
						c0.16,0.228,0.456,0.265,0.661,0.082l0.007-0.007c0.206-0.183,0.243-0.516,0.083-0.744l-0.951-1.259
						C49.394,415.785,49.098,415.748,48.893,415.931z"/>
				</g>
				<g>
					<path style="fill:#E6E6E5;" d="M50.567,414.617l-0.008,0.007c-0.206,0.183-0.243,0.516-0.083,0.744l0.951,1.258
						c0.16,0.228,0.455,0.265,0.661,0.082l0.008-0.007c0.206-0.183,0.243-0.516,0.083-0.744l-0.951-1.259
						C51.069,414.471,50.773,414.434,50.567,414.617z"/>
				</g>
			</g>
			<path style="fill:#EABA98;" d="M167.5,329.518c-1.925-2.697-5.673-3.323-8.37-1.398l-2.047,1.461
				c-1.515,1.081-2.376,2.737-2.499,4.459c-6.969,5.067-14.009,8.263-15.808,6.76c-4.494-3.743-8.776-19.251-10.382-29.066
				c-0.445-2.725-3.018-4.577-5.74-4.128c-2.725,0.444-4.573,3.013-4.129,5.738c0.744,4.56,4.904,27.686,13.851,35.14
				c2.242,1.868,4.854,2.632,7.632,2.632c8.618,0,18.812-7.366,24.357-11.988l1.737-1.24
				C168.799,335.962,169.425,332.215,167.5,329.518z"/>
			<g>
				<path style="fill:#B52840;" d="M131.064,312.836l3.99,17.888c0,0-2.356,2.376-6.461,3.491c-3.438,0.934-6.76,0.699-6.76,0.699
					l-4.972-18.593c-1.03-3.852,1.249-7.811,5.096-8.856l0.144-0.039C126.085,306.345,130.165,308.807,131.064,312.836z"/>
			</g>
		</g>
		<g>
			<g>
				<path style="fill:#E2AD94;" d="M271.109,191.019c-11.601,0-29.655-10.509-35.447-14.077c-2.351-1.448-3.082-4.527-1.634-6.878
					c1.447-2.351,4.528-3.085,6.879-1.636c0.068,0.042,6.88,4.221,14.571,7.773c10.723,4.951,15.536,5.127,16.737,4.732
					c4.27-10.033,10.692-41.004,10.757-41.318c0.559-2.704,3.198-4.444,5.908-3.885c2.704,0.559,4.443,3.204,3.885,5.908
					c-0.275,1.332-6.792,32.748-11.471,43.495c-1.129,2.594-3.219,4.434-6.042,5.319
					C274.007,190.842,272.612,191.019,271.109,191.019z"/>
			</g>
			<g>
				<path style="fill:#4C80BD;" d="M290.379,170.227c0,0-4.97,0.851-8.417,0c-4.631-1.143-8.833-3.854-8.833-3.854
					s3.764-24.374,7.273-31.538c1.957-3.995,7.912-7.244,7.912-7.244l14.295,9.694L290.379,170.227z"/>
			</g>
			<g>
				<path style="fill:#EABA98;" d="M301.187,225.957c-0.307,0-0.617-0.028-0.93-0.087c-2.713-0.51-4.5-3.123-3.99-5.837
					c2.267-12.068,5.083-33.879,2.987-41.031c-3.05-10.414-15.774-37.296-15.902-37.567c-1.184-2.495-0.12-5.477,2.375-6.66
					c2.497-1.182,5.478-0.12,6.66,2.376c0.537,1.133,13.194,27.876,16.465,39.04c3.453,11.788-2.111,42.254-2.757,45.689
					C305.643,224.282,303.544,225.957,301.187,225.957z"/>
			</g>
			<g>
				<path style="fill:#538ECB;" d="M309.29,168.066c0,0-0.901,3.369-4.943,5.369c-5.731,2.836-10.209,1.458-10.209,1.458
					s-11.405-22.958-14.593-30.271c-1.777-4.077,0.856-9.788,0.856-9.788l16.644-4.618l5.934,11.047L309.29,168.066z"/>
			</g>
			<path style="fill:#E2AD94;" d="M340.51,113.242c-0.974-3.168-4.333-4.945-7.498-3.973l-2.404,0.739
				c-1.782,0.548-3.125,1.85-3.785,3.449c-8.212,2.603-15.897,3.4-17.131,1.408c-2.272-3.669-2.729-13.994-1.189-26.946
				c0.326-2.742-1.633-5.229-4.375-5.555c-2.747-0.326-5.23,1.634-5.555,4.375c-1.327,11.163-1.949,26.019,2.618,33.392
				c2.706,4.368,7.586,5.856,12.979,5.855c7.171,0,15.241-2.629,20.315-4.616l2.053-0.631
				C339.704,119.766,341.483,116.41,340.51,113.242z"/>
			<g>
				<path style="fill:#EABA98;" d="M305.021,94.973c-0.357,0-0.72-0.039-1.083-0.119c-2.696-0.595-4.399-3.264-3.805-5.96
					l3.071-13.912c0.596-2.697,3.266-4.397,5.961-3.805c2.696,0.595,4.399,3.264,3.805,5.96l-3.071,13.912
					C309.383,93.383,307.315,94.973,305.021,94.973z"/>
			</g>
			<g>
				<path style="fill:#AD252B;" d="M302.979,141.263c0,0-4.516,0.585-12.246-1.829c-5.07-1.583-10.332-4.599-10.332-4.599
					l13.616-47.818c1.222-4.293,5.694-6.782,9.987-5.56l5.15,1.466c5.332,1.518,8.423,7.071,6.905,12.403L302.979,141.263z"/>
			</g>
			<g>
				<path style="fill:#EABA98;" d="M317.349,79.986l-9.87-0.525c-3.218-0.158-5.698-2.895-5.54-6.112l1.529-31.129l8.781,0.431
					c8.941,0.439,15.833,8.043,15.394,16.984l-1.431,12.318C325.983,76.618,322.015,80.215,317.349,79.986z"/>
			</g>
			<g>
				<path style="fill:#EABA98;" d="M325.962,58.393l3.202,7.632c0.475,1.132-0.216,2.414-1.423,2.64l-2.112,0.395L325.962,58.393z"
					/>
			</g>
			<g>
				<path style="fill:#472514;" d="M329.929,41.442c0.196-1.223,0.2-2.043,0.2-2.043c-5.136,1.447-18.104-3.318-26.854-0.297
					c-1.521,0.525-4.188,2.292-4.604,5.209c-5.125,0.458-6.375,8.109-6.375,13c0,16.625,10.729,19.722,10.729,19.722l3.604-13.305
					c0-5,4.042-11.729,7.292-11.729c2.404,0,6.526,0.074,9.111-0.668l0.002,0.001c0,0,8.638-0.083,8.638-10.395
					C331.671,40.935,331.203,41.137,329.929,41.442z"/>
			</g>
			<g>
				<path style="fill:#EABA98;" d="M310.682,65.31c0,2.946-2.388,5.333-5.333,5.333c-2.946,0-5.333-2.388-5.333-5.333
					c0-2.945,2.388-5.333,5.333-5.333C308.294,59.977,310.682,62.364,310.682,65.31z"/>
			</g>
			<g>
				<g>
					<path style="fill:#3E465E;" d="M295.738,219.723c-0.81,1.04-2.263,3.449-2.701,7.746c0,0,2.28,1.574,5.796,2.275
						c3.515,0.7,5.352,0.654,6.43,0.868c1.077,0.215,2.95,2.061,10.264,3.519c7.314,1.457,8.153,1.094,10.103-0.11
						c-0.625-4.199-5.835-4.136-9.546-6.964c-1.159-0.883-3.725-3.756-6.372-5.855c0,0-1.073-2.997-2.447-4.483
						c-0.155-0.168-0.392-0.234-0.606-0.154c-0.567,0.21-1.655,0.76-1.832,1.935c-0.148,0.988,0.048,1.747,0.22,2.183
						c0.1,0.252-0.027,0.538-0.282,0.631c-1.13,0.413-4.121,1.05-7.866-1.74C296.536,219.302,296.017,219.366,295.738,219.723z"/>
				</g>
				<g>
					<path style="fill:#538ECB;" d="M293.037,227.469c0,0,2.28,1.574,5.796,2.275c3.515,0.7,5.352,0.654,6.43,0.868
						c1.077,0.215,2.95,2.061,10.264,3.519c7.314,1.457,8.153,1.094,10.103-0.11c0.052,0.121,0.064,0.278,0.05,0.451
						c-0.071,0.926-0.708,1.707-1.562,2.072c-1.422,0.607-4.056,0.85-7.928,0.079c-5.897-1.175-8.472-2.849-11.193-3.391
						c-2.722-0.542-3.447,0.335-7.227-0.418c-3.165-0.631-5.043-1.776-5.57-2.132c-0.098-0.066-0.159-0.175-0.161-0.293
						C292.012,228.658,293.037,227.469,293.037,227.469z"/>
				</g>
				<g>
					<path style="fill:#538ECB;" d="M304.87,221.248c0.178-0.125,0.261-0.354,0.177-0.566c-0.172-0.436-0.369-1.194-0.22-2.183
						c0.177-1.176,1.265-1.725,1.832-1.935c0.214-0.079,0.451-0.014,0.606,0.154c1.374,1.487,2.447,4.483,2.447,4.483
						c2.647,2.099,5.213,4.972,6.372,5.855c0.883,0.673,1.851,1.18,2.821,1.622c-0.419,0.039-1.025-0.002-1.915-0.205
						c-3.015-0.686-5.48-5.261-7.562-6.771c-2.082-1.51-4.554-0.45-4.554-0.45S304.871,221.249,304.87,221.248z"/>
				</g>
				<g>
					<path style="fill:#E6E6E5;" d="M314.04,228.118l0.008,0.007c0.211,0.177,0.546,0.166,0.748-0.025l1.108-1.123
						c0.203-0.191,0.196-0.489-0.015-0.666l-0.008-0.007c-0.211-0.177-0.546-0.166-0.748,0.025l-1.108,1.123
						C313.823,227.643,313.829,227.941,314.04,228.118z"/>
				</g>
				<g>
					<path style="fill:#E6E6E5;" d="M312.497,226.652l0.008,0.007c0.211,0.177,0.546,0.166,0.748-0.025l1.108-1.123
						c0.202-0.191,0.196-0.489-0.015-0.666l-0.008-0.007c-0.211-0.177-0.545-0.166-0.748,0.025l-1.108,1.123
						C312.28,226.177,312.287,226.475,312.497,226.652z"/>
				</g>
				<g>
					<path style="fill:#E6E6E5;" d="M310.955,225.186l0.008,0.006c0.211,0.177,0.546,0.166,0.748-0.025l1.108-1.123
						c0.203-0.191,0.196-0.489-0.015-0.666l-0.008-0.007c-0.211-0.177-0.546-0.166-0.748,0.025l-1.108,1.123
						C310.738,224.71,310.744,225.009,310.955,225.186z"/>
				</g>
				<g>
					<path style="fill:#E6E6E5;" d="M309.413,223.719l0.008,0.006c0.211,0.177,0.546,0.166,0.748-0.025l1.108-1.123
						c0.202-0.191,0.196-0.489-0.015-0.666l-0.008-0.007c-0.211-0.177-0.546-0.166-0.748,0.025l-1.108,1.123
						C309.195,223.244,309.202,223.542,309.413,223.719z"/>
				</g>
			</g>
			<g>
				<g>
					<path style="fill:#3E465E;" d="M243.037,168.88c-0.674-1.133-2.39-3.362-6.234-5.333c0,0-2.296,1.552-4.226,4.572
						c-1.931,3.02-2.555,4.748-3.147,5.674c-0.592,0.925-2.993,1.998-7.01,8.282c-4.017,6.284-3.983,7.197-3.571,9.451
						c4.139,0.945,5.975-3.932,9.958-6.36c1.244-0.758,4.853-2.104,7.771-3.807c0,0,3.182,0.09,5.066-0.649
						c0.213-0.083,0.36-0.28,0.364-0.509c0.011-0.605-0.106-1.818-1.137-2.41c-0.867-0.498-1.644-0.59-2.113-0.588
						c-0.271,0.001-0.491-0.221-0.485-0.492c0.027-1.202,0.52-4.221,4.48-6.695C243.138,169.776,243.268,169.269,243.037,168.88z"/>
				</g>
				<g>
					<path style="fill:#538ECB;" d="M236.803,163.547c0,0-2.296,1.552-4.226,4.572c-1.931,3.02-2.555,4.748-3.147,5.674
						c-0.592,0.925-2.993,1.998-7.01,8.282c-4.017,6.284-3.983,7.197-3.571,9.451c-0.131,0.004-0.283-0.042-0.439-0.117
						c-0.837-0.403-1.333-1.28-1.362-2.208c-0.049-1.545,0.683-4.087,2.809-7.414c3.238-5.066,5.734-6.856,7.229-9.194
						c1.495-2.338,0.941-3.333,3.017-6.58c1.738-2.719,3.488-4.052,4.011-4.413c0.097-0.067,0.221-0.084,0.331-0.043
						C236.068,162.16,236.803,163.547,236.803,163.547z"/>
				</g>
				<g>
					<path style="fill:#538ECB;" d="M238.296,176.832c0.051,0.211,0.235,0.372,0.463,0.371c0.469-0.002,1.247,0.091,2.113,0.588
						c1.031,0.592,1.148,1.805,1.137,2.41c-0.004,0.229-0.151,0.425-0.364,0.509c-1.885,0.74-5.066,0.649-5.066,0.649
						c-2.918,1.703-6.527,3.049-7.771,3.807c-0.948,0.578-1.772,1.295-2.537,2.039c0.116-0.405,0.375-0.954,0.887-1.709
						c1.735-2.56,6.894-3.192,9.057-4.582c2.164-1.39,2.074-4.079,2.074-4.079S238.295,176.833,238.296,176.832z"/>
				</g>
				<g>
					<path style="fill:#E6E6E5;" d="M228.562,182.876l-0.009,0.005c-0.241,0.132-0.353,0.448-0.249,0.706l0.643,1.44
						c0.104,0.258,0.384,0.36,0.626,0.229l0.009-0.005c0.242-0.132,0.353-0.448,0.249-0.706l-0.643-1.44
						C229.083,182.847,228.803,182.745,228.562,182.876z"/>
				</g>
				<g>
					<path style="fill:#E6E6E5;" d="M230.488,181.973l-0.009,0.005c-0.242,0.132-0.353,0.448-0.249,0.706l0.643,1.44
						c0.104,0.258,0.384,0.36,0.626,0.229l0.009-0.005c0.241-0.132,0.353-0.448,0.249-0.706l-0.643-1.44
						C231.01,181.943,230.73,181.841,230.488,181.973z"/>
				</g>
				<g>
					<path style="fill:#E6E6E5;" d="M232.415,181.069l-0.009,0.005c-0.242,0.132-0.353,0.448-0.249,0.706l0.643,1.44
						c0.104,0.258,0.384,0.36,0.626,0.229l0.009-0.005c0.242-0.132,0.353-0.448,0.249-0.706l-0.643-1.44
						C232.937,181.039,232.657,180.937,232.415,181.069z"/>
				</g>
				<g>
					<path style="fill:#E6E6E5;" d="M234.342,180.165l-0.009,0.005c-0.241,0.132-0.353,0.448-0.249,0.706l0.643,1.44
						c0.104,0.258,0.384,0.36,0.626,0.228l0.009-0.005c0.242-0.132,0.353-0.448,0.249-0.706l-0.643-1.44
						C234.864,180.136,234.583,180.033,234.342,180.165z"/>
				</g>
			</g>
			<path style="fill:#EABA98;" d="M304.653,85.386c-1.073-2.545-4.008-3.736-6.551-2.664c-13.712,5.784-22.582,11.16-26.362,15.98
				c-8.834,11.266,7.446,28.649,9.332,30.594c0.694,0.717,1.554,1.167,2.459,1.377c0.799,0.371,1.663,0.563,2.532,0.563
				c1.41,0,2.825-0.494,3.966-1.499c2.486-2.191,2.725-5.983,0.533-8.469l-1.664-1.886c-1.252-1.42-3.025-2.103-4.779-2.022
				c-3.542-4.882-6.173-10.364-4.509-12.486c2.566-3.273,10.934-8.11,22.38-12.938C304.533,90.863,305.726,87.93,304.653,85.386z"/>
			<g>
				<path style="fill:#B52840;" d="M301.825,95.954l-12.944,4.354c0,0-1.927-1.768-3.566-5.693
					c-1.372-3.287-1.573-6.612-1.573-6.612l15.329-6.401c3.001-1.253,6.449,0.164,7.702,3.165l0.057,0.138
					C308.684,89.343,306.383,94.421,301.825,95.954z"/>
			</g>
		</g>
		<g>
			<path style="fill:#E2AD94;" d="M301.732,303.712c-1.073-2.546-4.007-3.736-6.55-2.663c-13.713,5.784-22.583,11.161-26.362,15.98
				c-8.834,11.266,7.446,28.648,9.332,30.594c0.695,0.717,1.555,1.168,2.46,1.377c0.798,0.37,1.662,0.562,2.53,0.562
				c1.41,0,2.826-0.494,3.967-1.5c2.485-2.191,2.723-5.983,0.531-8.469l-1.663-1.886c-1.255-1.423-3.034-2.105-4.792-2.021
				c-3.543-4.874-6.17-10.352-4.496-12.487c2.566-3.272,10.933-8.109,22.38-12.939C301.613,309.189,302.806,306.256,301.732,303.712
				z"/>
			<g>
				<path style="fill:#9E272A;" d="M298.905,314.281l-12.944,4.354c0,0-1.927-1.768-3.566-5.693
					c-1.373-3.287-1.573-6.612-1.573-6.612l15.329-6.401c3.001-1.253,6.449,0.164,7.702,3.165l0.058,0.138
					C305.764,307.669,303.463,312.748,298.905,314.281z"/>
			</g>
			<g>
				<path style="fill:#EABA98;" d="M298.267,444.284c-0.307,0-0.617-0.028-0.93-0.087c-2.713-0.51-4.5-3.124-3.99-5.838
					c2.267-12.068,5.083-33.879,2.987-41.031c-3.048-10.407-15.774-37.296-15.902-37.565c-1.184-2.496-0.12-5.478,2.375-6.66
					c2.495-1.182,5.478-0.121,6.66,2.375c0.537,1.134,13.194,27.877,16.465,39.04c3.453,11.789-2.111,42.255-2.757,45.69
					C302.723,442.609,300.624,444.284,298.267,444.284z"/>
			</g>
			<g>
				<path style="fill:#4C80BD;" d="M305.059,384.598c0,0-0.901,3.369-4.943,5.369c-5.731,2.836-10.209,1.458-10.209,1.458
					s-10.095-21.164-13.282-28.476c-1.777-4.078,0.857-9.788,0.857-9.788l16.643-4.618l5.934,11.047L305.059,384.598z"/>
			</g>
			<g>
				<g>
					<path style="fill:#3E465E;" d="M292.818,438.05c-0.81,1.04-2.263,3.449-2.701,7.746c0,0,2.28,1.574,5.796,2.275
						c3.515,0.7,5.352,0.654,6.43,0.868c1.077,0.215,2.95,2.061,10.264,3.519c7.314,1.457,8.153,1.094,10.103-0.11
						c-0.625-4.199-5.835-4.136-9.546-6.964c-1.159-0.883-3.725-3.756-6.372-5.855c0,0-1.073-2.997-2.447-4.483
						c-0.155-0.168-0.392-0.233-0.606-0.154c-0.567,0.21-1.655,0.76-1.832,1.935c-0.148,0.988,0.048,1.746,0.22,2.182
						c0.1,0.252-0.027,0.538-0.282,0.631c-1.13,0.412-4.121,1.05-7.866-1.74C293.616,437.629,293.097,437.693,292.818,438.05z"/>
				</g>
				<g>
					<path style="fill:#538ECB;" d="M290.117,445.796c0,0,2.28,1.574,5.796,2.275c3.515,0.7,5.352,0.654,6.43,0.868
						c1.077,0.215,2.95,2.061,10.264,3.519c7.314,1.457,8.153,1.094,10.103-0.11c0.052,0.121,0.064,0.278,0.05,0.451
						c-0.071,0.926-0.708,1.707-1.562,2.072c-1.422,0.607-4.056,0.85-7.928,0.079c-5.897-1.175-8.472-2.849-11.193-3.391
						c-2.722-0.542-3.447,0.335-7.227-0.418c-3.165-0.631-5.042-1.776-5.57-2.132c-0.098-0.066-0.159-0.175-0.161-0.293
						C289.092,446.985,290.117,445.796,290.117,445.796z"/>
				</g>
				<g>
					<path style="fill:#538ECB;" d="M301.95,439.575c0.178-0.125,0.261-0.354,0.177-0.566c-0.172-0.436-0.369-1.194-0.22-2.182
						c0.177-1.176,1.265-1.725,1.832-1.935c0.214-0.079,0.451-0.014,0.606,0.154c1.374,1.487,2.447,4.483,2.447,4.483
						c2.647,2.099,5.213,4.972,6.372,5.855c0.883,0.673,1.851,1.18,2.822,1.622c-0.419,0.039-1.025-0.002-1.915-0.205
						c-3.015-0.686-5.48-5.261-7.562-6.771s-4.554-0.45-4.554-0.45S301.951,439.576,301.95,439.575z"/>
				</g>
				<g>
					<path style="fill:#E6E6E5;" d="M311.12,446.445l0.008,0.007c0.211,0.177,0.546,0.166,0.748-0.025l1.108-1.123
						c0.202-0.191,0.196-0.489-0.015-0.666l-0.008-0.007c-0.211-0.177-0.546-0.166-0.748,0.025l-1.108,1.123
						C310.903,445.97,310.909,446.268,311.12,446.445z"/>
				</g>
				<g>
					<path style="fill:#E6E6E5;" d="M309.577,444.979l0.008,0.007c0.211,0.177,0.546,0.166,0.748-0.025l1.108-1.123
						c0.203-0.191,0.196-0.489-0.015-0.666l-0.008-0.007c-0.211-0.177-0.546-0.166-0.748,0.025l-1.108,1.123
						C309.36,444.504,309.367,444.802,309.577,444.979z"/>
				</g>
				<g>
					<path style="fill:#E6E6E5;" d="M308.035,443.512l0.008,0.007c0.211,0.177,0.546,0.166,0.748-0.025l1.108-1.123
						c0.202-0.191,0.196-0.489-0.015-0.666l-0.008-0.007c-0.211-0.177-0.546-0.166-0.748,0.025l-1.108,1.123
						C307.818,443.037,307.824,443.335,308.035,443.512z"/>
				</g>
				<g>
					<path style="fill:#E6E6E5;" d="M306.493,442.046l0.008,0.007c0.211,0.177,0.546,0.166,0.748-0.025l1.108-1.123
						c0.202-0.191,0.196-0.489-0.015-0.666l-0.008-0.007c-0.211-0.177-0.545-0.166-0.748,0.025l-1.108,1.123
						C306.275,441.571,306.282,441.869,306.493,442.046z"/>
				</g>
			</g>
			<g>
				<path style="fill:#E2AD94;" d="M270.461,409.17c-11.63,0-29.077-8.582-34.852-11.603c-2.447-1.279-3.393-4.3-2.114-6.747
					c1.279-2.446,4.297-3.392,6.747-2.115c0.07,0.037,7.16,3.728,15.081,6.73c11.045,4.187,15.858,4.024,17.028,3.545
					c3.552-10.305,7.784-41.654,7.826-41.973c0.367-2.735,2.876-4.656,5.621-4.291c2.736,0.367,4.657,2.884,4.291,5.621
					c-0.182,1.348-4.474,33.144-8.386,44.193c-0.944,2.667-2.899,4.648-5.653,5.73C274.442,408.894,272.544,409.17,270.461,409.17z"
					/>
			</g>
			<g>
				<path style="fill:#538ECB;" d="M290.643,393.932c0,0-4.156,1.639-8.75,0.887c-5.417-0.887-10.35-4.119-10.35-4.119
					s2.43-30.374,5.94-37.538c1.957-3.995,7.912-7.244,7.912-7.244l14.665,13.673L290.643,393.932z"/>
			</g>
			<g>
				<path style="fill:#EABA98;" d="M302.101,313.3c-0.357,0-0.72-0.038-1.083-0.118c-2.696-0.596-4.399-3.265-3.805-5.961
					l3.071-13.912c0.596-2.696,3.266-4.399,5.961-3.805c2.696,0.596,4.399,3.265,3.805,5.961l-3.071,13.912
					C306.463,311.71,304.396,313.3,302.101,313.3z"/>
			</g>
			<g>
				<path style="fill:#AD252B;" d="M300.059,359.59c0,0-4.516,0.585-12.246-1.829c-5.07-1.583-10.331-4.6-10.331-4.6l13.616-47.818
					c1.222-4.293,5.694-6.782,9.987-5.56l5.15,1.466c5.332,1.518,8.423,7.071,6.905,12.403L300.059,359.59z"/>
			</g>
			<g>
				<path style="fill:#EABA98;" d="M314.429,298.313l-9.87-0.525c-3.218-0.158-5.698-2.895-5.54-6.113l1.529-31.129l8.781,0.431
					c8.941,0.439,15.833,8.043,15.394,16.984l-1.431,12.319C323.063,294.945,319.095,298.542,314.429,298.313z"/>
			</g>
			<g>
				<path style="fill:#EABA98;" d="M323.042,276.72l3.202,7.632c0.475,1.132-0.216,2.414-1.423,2.64l-2.112,0.395L323.042,276.72z"
					/>
			</g>
			<g>
				<path style="fill:#472514;" d="M327.009,259.769c0.196-1.223,0.2-2.043,0.2-2.043c-5.136,1.447-18.104-3.318-26.854-0.297
					c-1.521,0.525-4.188,2.292-4.604,5.209c-5.125,0.458-6.375,8.109-6.375,13c0,16.625,10.729,19.721,10.729,19.721l3.604-13.305
					c0-5,4.042-11.729,7.292-11.729c2.404,0,6.526,0.074,9.111-0.668l0.002,0.001c0,0,8.638-0.083,8.638-10.395
					C328.75,259.262,328.283,259.464,327.009,259.769z"/>
			</g>
			<g>
				<circle style="fill:#EABA98;" cx="302.429" cy="283.637" r="5.333"/>
			</g>
			<g>
				<g>
					<path style="fill:#3E465E;" d="M242.398,389.008c-0.752-1.082-2.621-3.185-6.593-4.881c0,0-2.181,1.709-3.895,4.858
						c-1.714,3.148-2.215,4.916-2.74,5.881c-0.525,0.965-2.845,2.204-6.41,8.754c-3.565,6.551-3.468,7.46-2.898,9.678
						c4.195,0.652,5.684-4.342,9.487-7.044c1.188-0.844,4.693-2.44,7.484-4.344c0,0,3.18-0.134,5.008-1.004
						c0.206-0.098,0.339-0.305,0.327-0.533c-0.031-0.604-0.233-1.806-1.303-2.324c-0.9-0.436-1.682-0.473-2.149-0.438
						c-0.27,0.02-0.506-0.186-0.519-0.456c-0.058-1.201,0.222-4.247,3.999-6.993C242.563,389.895,242.657,389.38,242.398,389.008z"
						/>
				</g>
				<g>
					<path style="fill:#538ECB;" d="M235.805,384.126c0,0-2.181,1.709-3.895,4.858c-1.714,3.148-2.215,4.916-2.74,5.881
						c-0.525,0.965-2.845,2.204-6.41,8.754c-3.565,6.551-3.468,7.46-2.898,9.678c-0.131,0.014-0.285-0.022-0.446-0.086
						c-0.863-0.343-1.419-1.183-1.514-2.107c-0.157-1.538,0.394-4.125,2.281-7.593c2.874-5.281,5.238-7.242,6.565-9.679
						c1.327-2.438,0.704-3.391,2.547-6.776c1.543-2.834,3.195-4.287,3.691-4.684c0.092-0.074,0.214-0.1,0.327-0.066
						C234.974,382.794,235.805,384.126,235.805,384.126z"/>
				</g>
				<g>
					<path style="fill:#538ECB;" d="M238.228,397.273c0.066,0.207,0.261,0.354,0.488,0.337c0.467-0.035,1.25,0.003,2.149,0.438
						c1.07,0.518,1.272,1.72,1.303,2.324c0.012,0.228-0.121,0.435-0.327,0.533c-1.828,0.87-5.008,1.004-5.008,1.004
						c-2.791,1.904-6.297,3.5-7.484,4.344c-0.905,0.643-1.677,1.417-2.387,2.212c0.087-0.412,0.307-0.978,0.765-1.767
						c1.551-2.675,6.652-3.668,8.713-5.207c2.061-1.539,1.783-4.214,1.783-4.214S238.227,397.274,238.228,397.273z"/>
				</g>
				<g>
					<path style="fill:#E6E6E5;" d="M228.943,403.987l-0.008,0.005c-0.232,0.148-0.32,0.472-0.199,0.722l0.743,1.391
						c0.122,0.25,0.409,0.332,0.64,0.184l0.008-0.005c0.232-0.149,0.32-0.472,0.198-0.722l-0.743-1.391
						C229.461,403.921,229.174,403.838,228.943,403.987z"/>
				</g>
				<g>
					<path style="fill:#E6E6E5;" d="M230.801,402.95l-0.008,0.005c-0.232,0.148-0.321,0.471-0.199,0.722l0.743,1.391
						c0.122,0.25,0.409,0.332,0.64,0.184l0.008-0.005c0.232-0.148,0.32-0.472,0.198-0.722l-0.743-1.391
						C231.32,402.884,231.033,402.801,230.801,402.95z"/>
				</g>
				<g>
					<path style="fill:#E6E6E5;" d="M232.66,401.913l-0.008,0.005c-0.232,0.148-0.32,0.472-0.199,0.722l0.743,1.391
						c0.122,0.25,0.409,0.332,0.64,0.184l0.008-0.005c0.232-0.149,0.32-0.472,0.198-0.722l-0.743-1.391
						C233.178,401.847,232.891,401.764,232.66,401.913z"/>
				</g>
				<g>
					<path style="fill:#E6E6E5;" d="M234.518,400.876l-0.008,0.005c-0.232,0.148-0.32,0.471-0.199,0.722l0.743,1.391
						c0.122,0.25,0.409,0.332,0.64,0.184l0.008-0.005c0.232-0.148,0.32-0.472,0.198-0.722l-0.743-1.391
						C235.036,400.81,234.75,400.727,234.518,400.876z"/>
				</g>
			</g>
			<path style="fill:#EABA98;" d="M339.679,333.021c-0.975-3.167-4.328-4.946-7.499-3.972l-2.404,0.739
				c-1.781,0.548-3.124,1.85-3.784,3.448c-8.214,2.603-15.899,3.398-17.131,1.409c-2.273-3.67-2.729-13.994-1.19-26.946
				c0.326-2.742-1.633-5.229-4.375-5.555c-2.744-0.335-5.229,1.633-5.555,4.375c-1.327,11.163-1.949,26.017,2.618,33.392
				c2.706,4.368,7.585,5.855,12.978,5.855c7.165-0.001,15.229-2.626,20.303-4.612l2.066-0.635
				C338.874,339.545,340.652,336.189,339.679,333.021z"/>
			<g>
				<path style="fill:#B52840;" d="M308.895,308.761l0.392,18.324c0,0-2.778,1.866-7.022,2.151
					c-3.554,0.239-6.766-0.645-6.766-0.645l-1.215-19.208c-0.252-3.979,2.761-7.412,6.739-7.68l0.149-0.01
					C305.291,301.416,308.806,304.634,308.895,308.761z"/>
			</g>
		</g>
		<g>
			<g>
				<path style="fill:#E2AD94;" d="M409.221,188.617c-2.549,0-4.726-1.939-4.971-4.528c-0.262-2.749,1.756-5.188,4.504-5.45
					c13.185-1.255,26.528-4.888,28.658-7.744c-3.845-10.148-18.861-33.052-19.014-33.284c-1.517-2.308-0.875-5.408,1.433-6.924
					c2.311-1.517,5.408-0.875,6.925,1.433c0.655,0.997,16.092,24.546,20.147,35.605c1.027,2.801,0.712,5.74-0.886,8.275
					c-5.695,9.034-29.238,11.923-36.318,12.593C409.538,188.61,409.378,188.617,409.221,188.617z"/>
			</g>
			<g>
				<g>
					<path style="fill:#3E465E;" d="M411.368,178.303c-1.198-0.55-3.876-1.412-8.159-0.853c0,0-1.01,2.58-0.885,6.163
						c0.124,3.582,0.591,5.359,0.629,6.457c0.038,1.098-1.33,3.344-1.072,10.797c0.259,7.454,0.805,8.187,2.423,9.808
						c3.944-1.571,2.688-6.628,4.59-10.888c0.594-1.33,2.802-4.487,4.238-7.545c0,0,2.671-1.731,3.803-3.41
						c0.128-0.189,0.137-0.435,0.011-0.626c-0.334-0.504-1.119-1.437-2.304-1.34c-0.996,0.082-1.689,0.447-2.074,0.715
						c-0.222,0.155-0.53,0.097-0.679-0.13c-0.66-1.005-1.967-3.771-0.11-8.055C411.961,178.983,411.78,178.492,411.368,178.303z"/>
				</g>
				<g>
					<path style="fill:#538ECB;" d="M403.209,177.45c0,0-1.01,2.58-0.885,6.163c0.124,3.582,0.591,5.359,0.629,6.457
						c0.038,1.098-1.33,3.344-1.072,10.797c0.259,7.454,0.805,8.187,2.423,9.808c-0.106,0.078-0.256,0.126-0.428,0.153
						c-0.918,0.144-1.824-0.298-2.375-1.045c-0.917-1.245-1.757-3.753-1.894-7.699c-0.209-6.009,0.831-8.899,0.735-11.673
						c-0.096-2.773-1.117-3.278-1.25-7.13c-0.112-3.225,0.572-5.315,0.798-5.91c0.042-0.11,0.134-0.195,0.248-0.224
						C401.817,176.724,403.209,177.45,403.209,177.45z"/>
				</g>
				<g>
					<path style="fill:#538ECB;" d="M411.978,187.54c0.162,0.145,0.404,0.173,0.592,0.042c0.385-0.268,1.078-0.633,2.074-0.715
						c1.185-0.098,1.97,0.835,2.304,1.34c0.126,0.19,0.117,0.436-0.011,0.626c-1.132,1.678-3.803,3.41-3.803,3.41
						c-1.436,3.058-3.644,6.214-4.238,7.545c-0.452,1.014-0.724,2.072-0.932,3.118c-0.134-0.399-0.233-0.998-0.24-1.911
						c-0.024-3.092,3.865-6.54,4.857-8.913c0.993-2.372-0.606-4.535-0.606-4.535S411.977,187.542,411.978,187.54z"/>
				</g>
				<g>
					<path style="fill:#E6E6E5;" d="M407.393,198.041l-0.005,0.009c-0.124,0.245-0.036,0.569,0.196,0.722l1.347,0.821
						c0.232,0.153,0.521,0.079,0.645-0.167l0.005-0.009c0.124-0.246,0.036-0.569-0.196-0.722l-1.347-0.821
						C407.806,197.721,407.517,197.796,407.393,198.041z"/>
				</g>
				<g>
					<path style="fill:#E6E6E5;" d="M408.467,196.204l-0.005,0.009c-0.124,0.245-0.036,0.569,0.196,0.722l1.347,0.821
						c0.232,0.153,0.521,0.079,0.645-0.167l0.005-0.009c0.124-0.246,0.036-0.569-0.196-0.722l-1.347-0.821
						C408.879,195.883,408.591,195.958,408.467,196.204z"/>
				</g>
				<g>
					<path style="fill:#E6E6E5;" d="M409.54,194.366l-0.005,0.009c-0.124,0.246-0.036,0.569,0.196,0.722l1.347,0.821
						c0.232,0.153,0.521,0.079,0.645-0.167l0.005-0.009c0.124-0.246,0.036-0.569-0.196-0.722l-1.347-0.821
						C409.953,194.046,409.664,194.121,409.54,194.366z"/>
				</g>
				<g>
					<path style="fill:#E6E6E5;" d="M410.614,192.529l-0.005,0.009c-0.124,0.245-0.036,0.569,0.196,0.722l1.347,0.821
						c0.232,0.153,0.521,0.078,0.645-0.167l0.004-0.009c0.124-0.246,0.036-0.569-0.196-0.722l-1.347-0.821
						C411.027,192.208,410.738,192.283,410.614,192.529z"/>
				</g>
			</g>
			<g>
				<path style="fill:#4C80BD;" d="M444.129,157.117c0,0-0.901,3.369-4.943,5.369c-5.731,2.836-10.209,1.458-10.209,1.458
					s-15.369-19.036-18.556-26.348c-1.777-4.077,0.856-9.788,0.856-9.788l16.644-4.618l5.934,11.047L444.129,157.117z"/>
			</g>
			<g>
				<path style="fill:#EABA98;" d="M394.752,220.784c-0.958,0-1.927-0.275-2.782-0.85c-2.293-1.54-2.903-4.646-1.364-6.938
					c5.025-7.482,18.511-28.739,20.559-37.14c2.774-11.387,2.796-39.599,2.796-39.882c-0.001-2.762,2.236-5.001,4.998-5.002
					c0.001,0,0.002,0,0.002,0c2.761,0,4.999,2.237,5,4.998c0,1.207-0.024,29.71-3.081,42.253
					c-2.836,11.643-20.021,37.444-21.972,40.348C397.942,220.008,396.362,220.784,394.752,220.784z"/>
			</g>
			<g>
				<path style="fill:#538ECB;" d="M427.369,167.432c0,0-4.596,0.963-8.129,0.617c-5.906-0.578-10.402-2.641-10.402-2.641
					s-1.07-30.437,2.439-37.6c1.957-3.995,7.912-7.244,7.912-7.244l14.295,9.694L427.369,167.432z"/>
			</g>
			<path style="fill:#E2AD94;" d="M462.252,112.237c-0.059,0-0.117,0.001-0.177,0.002l-2.514,0.073
				c-1.863,0.054-3.504,0.952-4.565,2.317c-8.61,0.324-16.23-0.953-16.889-3.2c-1.214-4.142,1.094-14.216,6.022-26.292
				c1.044-2.557-0.183-5.475-2.739-6.519c-2.56-1.045-5.475,0.184-6.519,2.74c-4.249,10.408-8.801,24.562-6.36,32.885
				c2.524,8.607,13.771,10.516,23.246,10.516c3.168,0,6.13-0.214,8.511-0.462l2.154-0.062c3.313-0.096,5.92-2.859,5.823-6.171
				C468.152,114.81,465.485,112.237,462.252,112.237z"/>
			<g>
				<path style="fill:#EABA98;" d="M435.896,87.947c-0.357,0-0.72-0.039-1.083-0.119c-2.696-0.595-4.399-3.264-3.805-5.96
					l3.071-13.912c0.596-2.697,3.264-4.397,5.961-3.805c2.696,0.595,4.399,3.264,3.805,5.96l-3.071,13.912
					C440.259,86.357,438.191,87.947,435.896,87.947z"/>
			</g>
			<g>
				<path style="fill:#AD252B;" d="M433.854,134.237c0,0-4.516,0.585-12.246-1.829c-5.07-1.583-10.332-4.6-10.332-4.6l13.616-47.818
					c1.223-4.293,5.694-6.782,9.987-5.56l5.15,1.466c5.332,1.518,8.423,7.071,6.905,12.403L433.854,134.237z"/>
			</g>
			<g>
				<path style="fill:#EABA98;" d="M448.224,72.959l-9.87-0.525c-3.218-0.158-5.698-2.895-5.54-6.112l1.529-31.129l8.781,0.431
					c8.941,0.439,15.833,8.043,15.394,16.984l-1.431,12.319C456.858,69.592,452.89,73.189,448.224,72.959z"/>
			</g>
			<g>
				<path style="fill:#EABA98;" d="M456.838,51.367l3.202,7.632c0.475,1.132-0.216,2.414-1.423,2.64l-2.112,0.395L456.838,51.367z"
					/>
			</g>
			<g>
				<path style="fill:#472514;" d="M460.804,34.416c0.196-1.223,0.2-2.043,0.2-2.043c-5.136,1.447-18.104-3.318-26.854-0.297
					c-1.521,0.525-4.188,2.292-4.604,5.209c-5.125,0.458-6.375,8.109-6.375,13c0,16.625,10.729,19.722,10.729,19.722l3.604-13.305
					c0-5,4.042-11.729,7.292-11.729c2.404,0,6.526,0.074,9.111-0.668l0.002,0.001c0,0,8.638-0.083,8.638-10.395
					C462.546,33.909,462.078,34.11,460.804,34.416z"/>
			</g>
			<g>
				<path style="fill:#EABA98;" d="M441.558,58.283c0,2.946-2.388,5.333-5.333,5.333c-2.946,0-5.333-2.388-5.333-5.333
					c0-2.945,2.388-5.333,5.333-5.333C439.17,52.95,441.558,55.338,441.558,58.283z"/>
			</g>
			<g>
				<g>
					<path style="fill:#3E465E;" d="M390.936,211.998c-1.103,0.722-3.257,2.532-5.061,6.456c0,0,1.648,2.227,4.748,4.027
						c3.1,1.8,4.853,2.35,5.803,2.901c0.95,0.552,2.124,2.905,8.574,6.65c6.45,3.745,7.361,3.672,9.595,3.164
						c0.767-4.176-4.183-5.801-6.78-9.678c-0.811-1.21-2.31-4.758-4.135-7.601c0,0-0.046-3.182-0.865-5.034
						c-0.092-0.209-0.295-0.348-0.524-0.342c-0.605,0.015-1.812,0.183-2.359,1.239c-0.46,0.887-0.52,1.668-0.497,2.136
						c0.013,0.271-0.2,0.5-0.471,0.506c-1.202,0.025-4.239-0.34-6.88-4.19C391.827,211.858,391.315,211.75,390.936,211.998z"/>
				</g>
				<g>
					<path style="fill:#538ECB;" d="M385.875,218.454c0,0,1.648,2.227,4.748,4.027c3.1,1.8,4.853,2.35,5.803,2.901
						c0.95,0.552,2.124,2.905,8.574,6.65c6.45,3.745,7.361,3.672,9.595,3.164c0.01,0.131-0.03,0.284-0.098,0.443
						c-0.367,0.854-1.222,1.386-2.148,1.455c-1.542,0.115-4.113-0.507-7.527-2.49c-5.2-3.019-7.095-5.436-9.494-6.83
						c-2.4-1.394-3.37-0.798-6.703-2.733c-2.791-1.62-4.197-3.312-4.581-3.819c-0.071-0.094-0.094-0.217-0.057-0.329
						C384.52,219.247,385.875,218.454,385.875,218.454z"/>
				</g>
				<g>
					<path style="fill:#538ECB;" d="M399.084,216.394c0.209-0.061,0.361-0.251,0.35-0.478c-0.022-0.468,0.037-1.249,0.497-2.136
						c0.547-1.055,1.755-1.224,2.359-1.239c0.229-0.006,0.431,0.133,0.524,0.342c0.819,1.851,0.865,5.034,0.865,5.034
						c1.826,2.843,3.325,6.391,4.135,7.601c0.618,0.922,1.37,1.715,2.145,2.447c-0.409-0.099-0.969-0.334-1.746-0.813
						c-2.631-1.624-3.484-6.751-4.965-8.853c-1.481-2.102-4.163-1.898-4.163-1.898S399.084,216.396,399.084,216.394z"/>
				</g>
				<g>
					<path style="fill:#E6E6E5;" d="M405.538,225.861l0.005,0.009c0.142,0.236,0.462,0.333,0.716,0.218l1.411-0.704
						c0.253-0.115,0.344-0.399,0.202-0.635l-0.005-0.009c-0.142-0.236-0.463-0.333-0.716-0.218l-1.411,0.704
						C405.486,225.342,405.396,225.626,405.538,225.861z"/>
				</g>
				<g>
					<path style="fill:#E6E6E5;" d="M404.553,223.975l0.005,0.009c0.142,0.236,0.462,0.333,0.716,0.218l1.411-0.704
						c0.253-0.115,0.344-0.399,0.202-0.635l-0.005-0.009c-0.142-0.236-0.463-0.333-0.716-0.218l-1.411,0.704
						C404.501,223.455,404.411,223.74,404.553,223.975z"/>
				</g>
				<g>
					<path style="fill:#E6E6E5;" d="M403.568,222.089l0.005,0.009c0.142,0.236,0.463,0.333,0.716,0.218l1.411-0.704
						c0.253-0.115,0.344-0.399,0.202-0.635l-0.005-0.009c-0.142-0.236-0.463-0.333-0.716-0.218l-1.411,0.704
						C403.516,221.569,403.426,221.853,403.568,222.089z"/>
				</g>
				<g>
					<path style="fill:#E6E6E5;" d="M402.583,220.202l0.005,0.009c0.142,0.236,0.462,0.333,0.716,0.218l1.411-0.704
						c0.253-0.115,0.344-0.399,0.202-0.635l-0.005-0.009c-0.142-0.236-0.462-0.333-0.716-0.218l-1.411,0.704
						C402.531,219.682,402.441,219.967,402.583,220.202z"/>
				</g>
			</g>
			<path style="fill:#EABA98;" d="M435.529,78.36c-1.074-2.545-4.006-3.736-6.551-2.664c-13.713,5.784-22.583,11.161-26.362,15.98
				c-8.835,11.266,7.446,28.649,9.332,30.594c0.694,0.717,1.554,1.167,2.459,1.377c0.799,0.371,1.663,0.563,2.532,0.563
				c1.41,0,2.825-0.494,3.966-1.499c2.486-2.191,2.725-5.983,0.532-8.469l-1.662-1.886c-1.253-1.42-3.027-2.103-4.78-2.022
				c-3.542-4.882-6.173-10.364-4.509-12.486c2.566-3.273,10.933-8.109,22.38-12.938C435.409,83.836,436.601,80.904,435.529,78.36z"
				/>
			<g>
				<path style="fill:#B52840;" d="M432.7,88.928l-12.944,4.354c0,0-1.927-1.768-3.566-5.693c-1.372-3.287-1.573-6.612-1.573-6.612
					l15.329-6.401c3.001-1.253,6.449,0.164,7.702,3.165l0.057,0.138C439.56,82.316,437.259,87.395,432.7,88.928z"/>
			</g>
		</g>
		<g>
			<g>
				<path style="fill:#E2AD94;" d="M423.192,342.934c-1.306,0-2.608-0.508-3.588-1.519c-1.886-1.945-18.165-19.329-9.332-30.594
					c3.021-3.854,6.668-6.977,10.528-10.283c2.022-1.731,4.113-3.522,6.298-5.563c2.017-1.886,5.181-1.776,7.067,0.241
					c1.885,2.018,1.776,5.183-0.241,7.067c-2.343,2.188-4.517,4.05-6.619,5.851c-3.624,3.103-6.754,5.785-9.164,8.858
					c-2.281,2.908,3.499,12.133,8.647,17.466c1.916,1.985,1.864,5.15-0.119,7.068C425.697,342.466,424.443,342.934,423.192,342.934z
					"/>
			</g>
			<g>
				<path style="fill:#B52840;" d="M434.603,306.69l-11.024,8.061c0,0-2.371-1.104-5.119-4.35c-2.302-2.719-3.497-5.828-3.497-5.828
					l12.679-10.733c2.482-2.101,6.197-1.792,8.298,0.69l0.096,0.114C439.144,298.315,438.485,303.851,434.603,306.69z"/>
			</g>
			<g>
				<path style="fill:#E2AD94;" d="M394.341,439.11c-0.958,0-1.927-0.274-2.782-0.85c-2.293-1.539-2.903-4.645-1.364-6.938
					c5.024-7.482,18.511-28.739,20.559-37.14c2.773-11.379,2.796-39.6,2.796-39.883c-0.001-2.762,2.237-5.001,4.998-5.002
					c0.001,0,0.002,0,0.002,0c2.761,0,4.999,2.237,5,4.998c0,1.207-0.024,29.711-3.081,42.254
					c-2.837,11.643-20.022,37.443-21.972,40.348C397.532,438.335,395.952,439.11,394.341,439.11z"/>
			</g>
			<g>
				<path style="fill:#4C80BD;" d="M426.959,385.759c0,0-4.595,0.963-8.129,0.617c-5.906-0.578-10.402-2.641-10.402-2.641
					s-1.07-30.437,2.439-37.6c1.957-3.994,7.912-7.244,7.912-7.244l14.295,9.694L426.959,385.759z"/>
			</g>
			<g>
				<g>
					<path style="fill:#3E465E;" d="M390.526,430.325c-1.103,0.722-3.257,2.532-5.061,6.456c0,0,1.648,2.227,4.748,4.027
						c3.1,1.8,4.853,2.35,5.803,2.901c0.95,0.551,2.124,2.905,8.574,6.649c6.45,3.745,7.361,3.672,9.595,3.164
						c0.767-4.176-4.183-5.801-6.78-9.678c-0.811-1.211-2.31-4.759-4.135-7.601c0,0-0.046-3.182-0.865-5.034
						c-0.092-0.209-0.295-0.348-0.524-0.342c-0.605,0.015-1.812,0.183-2.359,1.238c-0.46,0.887-0.52,1.668-0.497,2.136
						c0.013,0.271-0.2,0.5-0.471,0.506c-1.202,0.025-4.239-0.339-6.88-4.19C391.417,430.185,390.905,430.077,390.526,430.325z"/>
				</g>
				<g>
					<path style="fill:#538ECB;" d="M385.464,436.781c0,0,1.648,2.227,4.748,4.027c3.1,1.8,4.853,2.35,5.803,2.901
						c0.95,0.551,2.124,2.905,8.574,6.649c6.45,3.745,7.361,3.672,9.595,3.164c0.01,0.131-0.03,0.284-0.098,0.443
						c-0.367,0.854-1.222,1.386-2.148,1.455c-1.542,0.114-4.113-0.507-7.527-2.49c-5.2-3.019-7.095-5.436-9.495-6.83
						c-2.4-1.393-3.37-0.798-6.703-2.733c-2.791-1.62-4.197-3.312-4.581-3.819c-0.071-0.094-0.094-0.217-0.057-0.329
						C384.109,437.574,385.464,436.781,385.464,436.781z"/>
				</g>
				<g>
					<path style="fill:#538ECB;" d="M398.673,434.721c0.209-0.061,0.361-0.251,0.35-0.478c-0.022-0.468,0.037-1.249,0.497-2.136
						c0.547-1.055,1.755-1.224,2.359-1.238c0.228-0.006,0.431,0.133,0.524,0.342c0.819,1.851,0.865,5.034,0.865,5.034
						c1.826,2.843,3.325,6.391,4.135,7.601c0.618,0.922,1.37,1.715,2.145,2.447c-0.409-0.099-0.969-0.334-1.746-0.813
						c-2.631-1.624-3.484-6.751-4.965-8.853c-1.481-2.102-4.163-1.898-4.163-1.898S398.674,434.723,398.673,434.721z"/>
				</g>
				<g>
					<path style="fill:#E6E6E5;" d="M405.128,444.188l0.005,0.009c0.142,0.236,0.462,0.333,0.716,0.218l1.411-0.704
						c0.253-0.115,0.344-0.399,0.202-0.635l-0.005-0.009c-0.142-0.236-0.462-0.333-0.716-0.218l-1.411,0.704
						C405.076,443.669,404.986,443.953,405.128,444.188z"/>
				</g>
				<g>
					<path style="fill:#E6E6E5;" d="M404.143,442.302l0.005,0.009c0.142,0.236,0.462,0.333,0.716,0.218l1.411-0.704
						c0.253-0.115,0.344-0.399,0.202-0.635l-0.005-0.009c-0.142-0.236-0.462-0.333-0.716-0.218l-1.411,0.704
						C404.091,441.782,404,442.066,404.143,442.302z"/>
				</g>
				<g>
					<path style="fill:#E6E6E5;" d="M403.157,440.416l0.005,0.009c0.142,0.236,0.462,0.333,0.716,0.218l1.411-0.704
						c0.253-0.115,0.344-0.399,0.202-0.635l-0.005-0.009c-0.142-0.236-0.462-0.333-0.716-0.218l-1.411,0.704
						C403.105,439.896,403.015,440.18,403.157,440.416z"/>
				</g>
				<g>
					<path style="fill:#E6E6E5;" d="M402.172,438.529l0.005,0.009c0.142,0.236,0.462,0.333,0.716,0.218l1.411-0.704
						c0.253-0.115,0.344-0.399,0.202-0.635l-0.005-0.009c-0.142-0.236-0.462-0.333-0.716-0.218l-1.411,0.704
						C402.12,438.009,402.03,438.294,402.172,438.529z"/>
				</g>
			</g>
			<g>
				<path style="fill:#EABA98;" d="M426.558,424.657c-1.161,0-2.327-0.402-3.273-1.222c-2.086-1.809-2.311-4.966-0.504-7.053
					c9.773-11.285,19.476-27.1,17.771-31.749c-2.888-7.878-16.796-22.808-21.911-27.896c-1.958-1.947-1.966-5.113-0.019-7.071
					c1.946-1.958,5.113-1.967,7.071-0.019c2.043,2.032,20.083,20.185,24.247,31.543c4.575,12.476-13.848,35.103-19.604,41.741
					C429.348,424.073,427.957,424.657,426.558,424.657z"/>
			</g>
			<g>
				<g>
					<path style="fill:#3E465E;" d="M422.664,415.496c-1.241,0.445-3.758,1.701-6.429,5.096c0,0,1.083,2.551,3.677,5.024
						c2.594,2.474,4.17,3.418,4.965,4.176c0.795,0.758,1.387,3.32,6.785,8.467c5.397,5.147,6.3,5.289,8.591,5.317
						c1.721-3.881-2.713-6.617-4.333-10.993c-0.506-1.366-1.135-5.166-2.247-8.357c0,0,0.698-3.105,0.334-5.097
						c-0.041-0.225-0.206-0.407-0.43-0.455c-0.591-0.127-1.805-0.245-2.583,0.654c-0.655,0.755-0.895,1.501-0.982,1.961
						c-0.051,0.266-0.311,0.44-0.576,0.382c-1.175-0.257-4.043-1.32-5.712-5.681C423.563,415.568,423.091,415.344,422.664,415.496z"
						/>
				</g>
				<g>
					<path style="fill:#538ECB;" d="M416.236,420.592c0,0,1.083,2.551,3.677,5.024c2.594,2.474,4.17,3.418,4.965,4.176
						c0.795,0.758,1.387,3.32,6.785,8.467c5.397,5.147,6.3,5.289,8.591,5.317c-0.021,0.13-0.095,0.269-0.199,0.408
						c-0.556,0.745-1.512,1.063-2.429,0.913c-1.526-0.249-3.88-1.453-6.738-4.178c-4.351-4.15-5.629-6.942-7.638-8.858
						c-2.008-1.915-3.09-1.562-5.88-4.222c-2.335-2.227-3.308-4.2-3.563-4.783c-0.047-0.108-0.04-0.233,0.021-0.333
						C414.733,421.047,416.236,420.592,416.236,420.592z"/>
				</g>
				<g>
					<path style="fill:#538ECB;" d="M429.56,421.673c0.217-0.01,0.41-0.159,0.453-0.383c0.088-0.461,0.328-1.206,0.982-1.961
						c0.779-0.898,1.992-0.78,2.583-0.654c0.224,0.048,0.388,0.23,0.429,0.455c0.365,1.992-0.334,5.097-0.334,5.097
						c1.112,3.191,1.741,6.991,2.247,8.357c0.385,1.041,0.932,1.987,1.515,2.88c-0.375-0.192-0.865-0.551-1.508-1.198
						c-2.179-2.194-1.811-7.378-2.761-9.768c-0.95-2.39-3.605-2.818-3.605-2.818S429.56,421.675,429.56,421.673z"/>
				</g>
				<g>
					<path style="fill:#E6E6E5;" d="M433.626,432.386l0.003,0.01c0.083,0.262,0.372,0.432,0.645,0.379l1.537-0.355
						c0.273-0.053,0.427-0.308,0.344-0.57l-0.003-0.01c-0.083-0.262-0.372-0.432-0.645-0.379l-1.537,0.355
						C433.697,431.868,433.543,432.124,433.626,432.386z"/>
				</g>
				<g>
					<path style="fill:#E6E6E5;" d="M433.109,430.322l0.003,0.01c0.083,0.262,0.372,0.432,0.645,0.379l1.537-0.355
						c0.273-0.053,0.427-0.308,0.344-0.57l-0.003-0.01c-0.083-0.262-0.372-0.432-0.645-0.379l-1.537,0.355
						C433.18,429.804,433.025,430.059,433.109,430.322z"/>
				</g>
				<g>
					<path style="fill:#E6E6E5;" d="M432.591,428.257l0.003,0.01c0.083,0.262,0.372,0.432,0.645,0.379l1.537-0.355
						c0.273-0.053,0.427-0.308,0.344-0.57l-0.003-0.01c-0.083-0.262-0.372-0.432-0.645-0.379l-1.537,0.355
						C432.662,427.74,432.508,427.995,432.591,428.257z"/>
				</g>
				<g>
					<path style="fill:#E6E6E5;" d="M432.073,426.193l0.003,0.01c0.083,0.262,0.372,0.432,0.645,0.379l1.537-0.355
						c0.273-0.053,0.427-0.308,0.344-0.57l-0.003-0.01c-0.083-0.262-0.372-0.432-0.645-0.379l-1.537,0.355
						C432.144,425.675,431.99,425.931,432.073,426.193z"/>
				</g>
			</g>
			<g>
				<path style="fill:#538ECB;" d="M448.736,374.143c0,0,0,3.625-4.678,7.424c-4.964,4.031-10.124,4.285-10.124,4.285
					s-20.736-22.616-23.923-29.929c-1.777-4.078,0.856-9.788,0.856-9.788l16.644-4.618l5.934,11.047L448.736,374.143z"/>
			</g>
			<g>
				<path style="fill:#EABA98;" d="M435.486,306.273c-0.358,0-0.72-0.038-1.083-0.118c-2.696-0.596-4.4-3.265-3.805-5.961
					l3.071-13.912c0.596-2.696,3.264-4.398,5.961-3.805c2.696,0.596,4.399,3.265,3.805,5.961l-3.071,13.912
					C439.848,304.683,437.781,306.273,435.486,306.273z"/>
			</g>
			<g>
				<path style="fill:#AD252B;" d="M433.444,352.564c0,0-4.516,0.585-12.246-1.829c-5.07-1.583-10.332-4.6-10.332-4.6l13.616-47.818
					c1.223-4.293,5.694-6.782,9.987-5.56l5.15,1.466c5.332,1.518,8.423,7.071,6.905,12.403L433.444,352.564z"/>
			</g>
			<g>
				<path style="fill:#EABA98;" d="M447.814,291.286l-9.87-0.525c-3.218-0.158-5.698-2.895-5.54-6.112l1.529-31.129l8.781,0.431
					c8.941,0.439,15.833,8.043,15.394,16.984l-1.431,12.319C456.448,287.919,452.48,291.516,447.814,291.286z"/>
			</g>
			<g>
				<path style="fill:#EABA98;" d="M456.427,269.694l3.202,7.632c0.475,1.132-0.216,2.414-1.423,2.64l-2.112,0.395L456.427,269.694z
					"/>
			</g>
			<g>
				<path style="fill:#472514;" d="M460.394,252.742c0.196-1.223,0.2-2.043,0.2-2.043c-5.136,1.447-18.104-3.318-26.854-0.297
					c-1.521,0.525-4.188,2.292-4.604,5.208c-5.125,0.458-6.375,8.109-6.375,13c0,16.625,10.729,19.721,10.729,19.721l3.604-13.305
					c0-5,4.042-11.729,7.292-11.729c2.404,0,6.526,0.074,9.111-0.668l0.002,0.001c0,0,8.638-0.083,8.638-10.395
					C462.135,252.235,461.668,252.437,460.394,252.742z"/>
			</g>
			<g>
				<path style="fill:#EABA98;" d="M441.147,276.61c0,2.945-2.388,5.333-5.333,5.333c-2.946,0-5.333-2.388-5.333-5.333
					s2.388-5.333,5.333-5.333C438.759,271.277,441.147,273.665,441.147,276.61z"/>
			</g>
			<path style="fill:#EABA98;" d="M463.131,334.9l-2.507-0.198c-1.688-0.134-3.266,0.449-4.444,1.49
				c-8.138-1.176-15.895-3.755-17.127-6.789c-1.623-3.999-0.335-14.254,3.362-26.762c0.783-2.647-0.73-5.43-3.378-6.212
				c-2.648-0.782-5.43,0.729-6.212,3.378c-3.186,10.78-6.3,25.318-3.038,33.355c4.094,10.089,21.299,12.746,29.421,13.442
				c0.155,0.025,0.31,0.049,0.47,0.061l2.507,0.198c0.161,0.013,0.32,0.019,0.479,0.019c3.099,0,5.725-2.385,5.975-5.527
				C468.901,338.051,466.435,335.162,463.131,334.9z"/>
			<g>
				<path style="fill:#B52840;" d="M443.783,303.51l-2.055,16.637c0,0-3.191,1.493-7.727,1.078
					c-3.812-0.349-7.069-1.824-7.069-1.824l2.047-17.712c0.402-3.799,3.944-6.483,7.916-6.076l0.149,0.015
					C441.143,296.048,444.209,299.6,443.783,303.51z"/>
			</g>
		</g>
	</g>
</g>
<g id="designed_by_freepik">
	<g>
		<g>
			<path style="fill:#3E465E;" d="M175.84,482.006v-0.165c-0.224,0.256-0.445,0.465-0.663,0.625
				c-0.218,0.161-0.454,0.284-0.709,0.367c-0.254,0.085-0.532,0.126-0.833,0.126c-0.399,0-0.769-0.084-1.109-0.253
				c-0.34-0.169-0.634-0.411-0.882-0.724c-0.249-0.313-0.437-0.681-0.565-1.105c-0.128-0.424-0.192-0.882-0.192-1.374
				c0-1.042,0.255-1.855,0.764-2.437c0.509-0.581,1.178-0.873,2.009-0.873c0.48,0,0.885,0.083,1.215,0.247
				c0.33,0.165,0.651,0.419,0.965,0.76v-2.461c0-0.342,0.068-0.6,0.205-0.775c0.136-0.175,0.33-0.262,0.583-0.262
				c0.252,0,0.447,0.08,0.583,0.241c0.137,0.161,0.205,0.397,0.205,0.711v7.352c0,0.318-0.073,0.556-0.22,0.715
				c-0.147,0.158-0.335,0.238-0.568,0.238c-0.228,0-0.416-0.082-0.565-0.247C175.914,482.546,175.84,482.311,175.84,482.006z
				 M172.561,479.557c0,0.452,0.07,0.836,0.211,1.154c0.141,0.318,0.333,0.557,0.577,0.717c0.244,0.161,0.511,0.242,0.8,0.242
				c0.293,0,0.561-0.077,0.803-0.23c0.242-0.152,0.435-0.387,0.58-0.701c0.145-0.316,0.217-0.711,0.217-1.182
				c0-0.444-0.072-0.826-0.217-1.146c-0.144-0.319-0.34-0.563-0.586-0.733c-0.247-0.168-0.516-0.252-0.809-0.252
				c-0.305,0-0.578,0.087-0.818,0.259c-0.24,0.173-0.426,0.421-0.559,0.745C172.627,478.754,172.561,479.129,172.561,479.557z"/>
			<path style="fill:#3E465E;" d="M183.191,479.979h-3.26c0.004,0.378,0.08,0.712,0.229,1.001c0.148,0.289,0.346,0.507,0.592,0.654
				c0.246,0.147,0.518,0.219,0.815,0.219c0.199,0,0.381-0.023,0.547-0.069c0.165-0.048,0.325-0.12,0.48-0.22
				c0.155-0.099,0.297-0.207,0.427-0.321c0.13-0.114,0.299-0.269,0.507-0.465c0.085-0.073,0.208-0.11,0.367-0.11
				c0.171,0,0.309,0.048,0.414,0.141c0.106,0.094,0.16,0.225,0.16,0.397c0,0.151-0.06,0.326-0.177,0.528
				c-0.119,0.202-0.297,0.395-0.535,0.58c-0.239,0.185-0.537,0.338-0.898,0.461c-0.36,0.122-0.774,0.183-1.243,0.183
				c-1.07,0-1.903-0.306-2.497-0.916c-0.594-0.61-0.891-1.439-0.891-2.485c0-0.493,0.073-0.95,0.219-1.371
				c0.147-0.422,0.361-0.783,0.641-1.084c0.281-0.301,0.627-0.532,1.038-0.693c0.411-0.161,0.867-0.241,1.368-0.241
				c0.651,0,1.21,0.136,1.675,0.412c0.467,0.274,0.816,0.63,1.048,1.065c0.231,0.436,0.348,0.88,0.348,1.331
				c0,0.42-0.12,0.691-0.36,0.816C183.966,479.916,183.627,479.979,183.191,479.979z M179.931,479.032h3.023
				c-0.04-0.57-0.195-0.997-0.461-1.28c-0.267-0.283-0.617-0.424-1.053-0.424c-0.415,0-0.757,0.143-1.023,0.43
				C180.15,478.045,179.988,478.47,179.931,479.032z"/>
			<path style="fill:#3E465E;" d="M190.787,480.777c0,0.46-0.111,0.854-0.336,1.182c-0.223,0.328-0.554,0.576-0.992,0.745
				c-0.437,0.169-0.97,0.253-1.597,0.253c-0.598,0-1.111-0.092-1.539-0.275c-0.427-0.183-0.743-0.413-0.946-0.686
				c-0.204-0.276-0.305-0.551-0.305-0.828c0-0.183,0.065-0.34,0.196-0.47c0.13-0.13,0.295-0.195,0.495-0.195
				c0.175,0,0.309,0.043,0.402,0.128c0.094,0.085,0.184,0.206,0.269,0.36c0.171,0.298,0.376,0.519,0.614,0.666
				c0.238,0.146,0.562,0.22,0.974,0.22c0.334,0,0.608-0.075,0.821-0.223c0.214-0.15,0.32-0.319,0.32-0.51
				c0-0.293-0.11-0.506-0.333-0.64c-0.222-0.134-0.587-0.263-1.096-0.385c-0.574-0.142-1.041-0.292-1.401-0.449
				c-0.36-0.156-0.648-0.363-0.864-0.619c-0.216-0.257-0.324-0.573-0.324-0.947c0-0.333,0.1-0.649,0.299-0.947
				c0.2-0.296,0.494-0.534,0.883-0.711c0.388-0.178,0.857-0.266,1.407-0.266c0.432,0,0.82,0.045,1.163,0.135
				c0.344,0.089,0.632,0.21,0.862,0.36c0.23,0.15,0.405,0.317,0.525,0.5c0.12,0.183,0.18,0.362,0.18,0.538
				c0,0.191-0.064,0.348-0.192,0.47c-0.128,0.121-0.31,0.183-0.547,0.183c-0.171,0-0.316-0.049-0.437-0.147
				c-0.12-0.097-0.257-0.244-0.412-0.439c-0.126-0.163-0.274-0.293-0.445-0.391c-0.171-0.098-0.403-0.146-0.697-0.146
				c-0.301,0-0.551,0.063-0.751,0.193c-0.199,0.128-0.299,0.287-0.299,0.478c0,0.176,0.073,0.319,0.219,0.431
				c0.147,0.112,0.344,0.205,0.593,0.278c0.248,0.073,0.59,0.162,1.026,0.268c0.516,0.127,0.939,0.278,1.267,0.452
				c0.327,0.174,0.576,0.382,0.746,0.62C190.703,480.201,190.787,480.472,190.787,480.777z"/>
			<path style="fill:#3E465E;" d="M192.491,475.405c-0.232,0-0.43-0.072-0.595-0.214c-0.165-0.142-0.247-0.343-0.247-0.605
				c0-0.237,0.084-0.43,0.253-0.583s0.366-0.229,0.589-0.229c0.216,0,0.407,0.069,0.574,0.208c0.167,0.139,0.251,0.34,0.251,0.605
				c0,0.257-0.082,0.457-0.245,0.602C192.908,475.332,192.714,475.405,192.491,475.405z M193.315,477.126v4.818
				c0,0.334-0.079,0.587-0.238,0.758c-0.159,0.171-0.36,0.256-0.605,0.256c-0.245,0-0.443-0.087-0.596-0.263
				c-0.153-0.175-0.229-0.426-0.229-0.751v-4.769c0-0.329,0.076-0.578,0.229-0.745c0.153-0.167,0.351-0.25,0.596-0.25
				c0.245,0,0.445,0.083,0.605,0.25C193.236,476.597,193.315,476.829,193.315,477.126z"/>
			<path style="fill:#3E465E;" d="M200.618,477.401v4.842c0,0.554-0.06,1.03-0.178,1.43c-0.117,0.398-0.307,0.728-0.568,0.989
				c-0.261,0.26-0.601,0.454-1.022,0.58c-0.421,0.127-0.946,0.19-1.573,0.19c-0.574,0-1.087-0.08-1.539-0.241
				c-0.451-0.161-0.799-0.369-1.044-0.623c-0.244-0.254-0.367-0.516-0.367-0.785c0-0.204,0.069-0.37,0.208-0.497
				c0.138-0.129,0.305-0.193,0.5-0.193c0.244,0,0.458,0.108,0.641,0.323c0.089,0.11,0.182,0.222,0.277,0.333
				c0.096,0.112,0.202,0.208,0.318,0.288c0.116,0.079,0.256,0.138,0.418,0.177c0.163,0.038,0.351,0.058,0.562,0.058
				c0.432,0,0.767-0.06,1.005-0.18c0.238-0.12,0.405-0.288,0.501-0.504c0.096-0.215,0.152-0.446,0.168-0.692
				c0.016-0.247,0.028-0.642,0.036-1.189c-0.257,0.359-0.552,0.632-0.889,0.819c-0.336,0.187-0.736,0.281-1.2,0.281
				c-0.558,0-1.045-0.142-1.463-0.427c-0.417-0.285-0.738-0.684-0.961-1.197c-0.224-0.514-0.336-1.105-0.336-1.777
				c0-0.5,0.068-0.953,0.204-1.355c0.137-0.404,0.331-0.743,0.583-1.02c0.252-0.277,0.543-0.485,0.873-0.626
				c0.33-0.14,0.692-0.21,1.087-0.21c0.472,0,0.881,0.091,1.228,0.271c0.346,0.182,0.668,0.466,0.965,0.853v-0.227
				c0-0.289,0.071-0.512,0.213-0.672c0.143-0.158,0.326-0.238,0.55-0.238c0.321,0,0.535,0.105,0.641,0.315
				C200.565,476.704,200.618,477.007,200.618,477.401z M195.788,479.514c0,0.676,0.147,1.187,0.442,1.533
				c0.295,0.347,0.677,0.519,1.145,0.519c0.277,0,0.538-0.075,0.784-0.223c0.247-0.149,0.447-0.373,0.602-0.672
				c0.154-0.299,0.232-0.662,0.232-1.09c0-0.679-0.15-1.209-0.449-1.587c-0.299-0.379-0.693-0.568-1.182-0.568
				c-0.477,0-0.858,0.181-1.145,0.544C195.931,478.331,195.788,478.847,195.788,479.514z"/>
			<path style="fill:#3E465E;" d="M203.268,477.102v0.202c0.293-0.387,0.613-0.671,0.962-0.852c0.348-0.181,0.748-0.272,1.2-0.272
				c0.44,0,0.833,0.096,1.179,0.288c0.346,0.192,0.605,0.462,0.775,0.811c0.111,0.204,0.182,0.424,0.214,0.66
				c0.033,0.237,0.05,0.538,0.05,0.904v3.102c0,0.334-0.077,0.587-0.23,0.758c-0.153,0.171-0.351,0.256-0.595,0.256
				c-0.249,0-0.45-0.087-0.605-0.263c-0.155-0.175-0.232-0.426-0.232-0.751v-2.778c0-0.549-0.077-0.97-0.229-1.261
				c-0.153-0.291-0.457-0.437-0.913-0.437c-0.297,0-0.568,0.089-0.812,0.266c-0.244,0.178-0.424,0.421-0.538,0.73
				c-0.081,0.249-0.122,0.712-0.122,1.392v2.088c0,0.338-0.079,0.592-0.235,0.761c-0.157,0.169-0.359,0.253-0.607,0.253
				c-0.241,0-0.438-0.087-0.593-0.263c-0.154-0.175-0.232-0.426-0.232-0.751v-4.818c0-0.318,0.069-0.555,0.207-0.712
				c0.139-0.156,0.328-0.235,0.568-0.235c0.147,0,0.279,0.035,0.398,0.104c0.117,0.07,0.212,0.173,0.284,0.311
				C203.232,476.733,203.268,476.903,203.268,477.102z"/>
			<path style="fill:#3E465E;" d="M213.409,479.979h-3.26c0.004,0.378,0.08,0.712,0.229,1.001c0.148,0.289,0.346,0.507,0.592,0.654
				c0.245,0.147,0.518,0.219,0.815,0.219c0.2,0,0.382-0.023,0.547-0.069c0.164-0.048,0.324-0.12,0.479-0.22
				c0.154-0.099,0.296-0.207,0.428-0.321c0.13-0.114,0.299-0.269,0.506-0.465c0.085-0.073,0.208-0.11,0.366-0.11
				c0.171,0,0.309,0.048,0.415,0.141c0.106,0.094,0.158,0.225,0.158,0.397c0,0.151-0.059,0.326-0.177,0.528
				c-0.118,0.202-0.296,0.395-0.535,0.58c-0.238,0.185-0.537,0.338-0.897,0.461c-0.36,0.122-0.775,0.183-1.243,0.183
				c-1.07,0-1.903-0.306-2.498-0.916c-0.594-0.61-0.891-1.439-0.891-2.485c0-0.493,0.073-0.95,0.22-1.371
				c0.146-0.422,0.361-0.783,0.642-1.084c0.281-0.301,0.627-0.532,1.038-0.693c0.411-0.161,0.867-0.241,1.368-0.241
				c0.651,0,1.209,0.136,1.675,0.412c0.467,0.274,0.816,0.63,1.048,1.065c0.232,0.436,0.348,0.88,0.348,1.331
				c0,0.42-0.12,0.691-0.36,0.816C214.184,479.916,213.845,479.979,213.409,479.979z M210.149,479.032h3.023
				c-0.04-0.57-0.194-0.997-0.461-1.28c-0.267-0.283-0.618-0.424-1.053-0.424c-0.416,0-0.757,0.143-1.023,0.43
				C210.367,478.045,210.206,478.47,210.149,479.032z"/>
			<path style="fill:#3E465E;" d="M220.205,482.006v-0.165c-0.224,0.256-0.445,0.465-0.662,0.625
				c-0.218,0.161-0.454,0.284-0.708,0.367c-0.254,0.085-0.532,0.126-0.833,0.126c-0.4,0-0.769-0.084-1.108-0.253
				c-0.34-0.169-0.634-0.411-0.882-0.724c-0.249-0.313-0.437-0.681-0.565-1.105c-0.128-0.424-0.192-0.882-0.192-1.374
				c0-1.042,0.254-1.855,0.763-2.437c0.509-0.581,1.179-0.873,2.009-0.873c0.48,0,0.886,0.083,1.215,0.247
				c0.33,0.165,0.651,0.419,0.964,0.76v-2.461c0-0.342,0.068-0.6,0.205-0.775c0.136-0.175,0.331-0.262,0.583-0.262
				c0.252,0,0.447,0.08,0.583,0.241c0.136,0.161,0.205,0.397,0.205,0.711v7.352c0,0.318-0.073,0.556-0.22,0.715
				c-0.147,0.158-0.336,0.238-0.568,0.238c-0.228,0-0.416-0.082-0.565-0.247C220.279,482.546,220.205,482.311,220.205,482.006z
				 M216.926,479.557c0,0.452,0.07,0.836,0.21,1.154c0.14,0.318,0.333,0.557,0.578,0.717c0.244,0.161,0.51,0.242,0.799,0.242
				c0.294,0,0.561-0.077,0.803-0.23c0.242-0.152,0.436-0.387,0.58-0.701c0.145-0.316,0.217-0.711,0.217-1.182
				c0-0.444-0.072-0.826-0.217-1.146c-0.144-0.319-0.34-0.563-0.586-0.733c-0.247-0.168-0.516-0.252-0.809-0.252
				c-0.305,0-0.578,0.087-0.818,0.259c-0.24,0.173-0.426,0.421-0.559,0.745C216.992,478.754,216.926,479.129,216.926,479.557z"/>
			<path style="fill:#3E465E;" d="M227.019,474.653v2.546c0.313-0.325,0.633-0.575,0.959-0.748c0.326-0.173,0.729-0.259,1.209-0.259
				c0.554,0,1.039,0.131,1.457,0.393c0.416,0.264,0.74,0.644,0.971,1.143c0.23,0.498,0.345,1.09,0.345,1.774
				c0,0.505-0.064,0.967-0.192,1.389c-0.128,0.421-0.315,0.787-0.559,1.096c-0.245,0.31-0.54,0.549-0.888,0.718
				c-0.348,0.169-0.732,0.253-1.151,0.253c-0.257,0-0.498-0.03-0.724-0.092c-0.226-0.061-0.419-0.141-0.577-0.241
				c-0.158-0.099-0.294-0.202-0.406-0.308c-0.112-0.105-0.26-0.265-0.443-0.477v0.165c0,0.313-0.075,0.551-0.226,0.712
				c-0.15,0.161-0.342,0.241-0.574,0.241c-0.236,0-0.424-0.08-0.565-0.241c-0.141-0.161-0.211-0.399-0.211-0.712v-7.279
				c0-0.338,0.068-0.593,0.204-0.766c0.137-0.173,0.327-0.259,0.571-0.259c0.257,0,0.454,0.082,0.592,0.247
				C226.95,474.113,227.019,474.348,227.019,474.653z M227.098,479.606c0,0.664,0.152,1.173,0.455,1.529
				c0.303,0.357,0.701,0.536,1.194,0.536c0.419,0,0.781-0.182,1.084-0.547c0.303-0.365,0.455-0.887,0.455-1.567
				c0-0.439-0.063-0.819-0.189-1.136c-0.126-0.318-0.305-0.563-0.537-0.736c-0.232-0.173-0.503-0.259-0.813-0.259
				c-0.317,0-0.601,0.087-0.849,0.259c-0.248,0.173-0.444,0.423-0.587,0.751C227.17,478.763,227.098,479.154,227.098,479.606z"/>
			<path style="fill:#3E465E;" d="M234.121,483.166l0.152-0.373l-2.052-5.166c-0.126-0.296-0.19-0.513-0.19-0.647
				c0-0.142,0.037-0.274,0.11-0.396c0.073-0.123,0.174-0.22,0.302-0.293c0.128-0.074,0.262-0.111,0.4-0.111
				c0.24,0,0.421,0.077,0.544,0.229c0.122,0.152,0.23,0.371,0.323,0.656l1.411,4.104l1.337-3.817
				c0.105-0.308,0.201-0.551,0.287-0.726c0.085-0.175,0.176-0.293,0.271-0.353c0.096-0.062,0.231-0.092,0.406-0.092
				c0.127,0,0.247,0.033,0.363,0.101c0.116,0.067,0.205,0.158,0.268,0.272c0.063,0.114,0.095,0.234,0.095,0.36
				c-0.017,0.077-0.043,0.187-0.08,0.33c-0.037,0.142-0.081,0.288-0.134,0.433l-2.174,5.691c-0.188,0.5-0.371,0.893-0.55,1.178
				c-0.179,0.285-0.416,0.505-0.711,0.657c-0.295,0.153-0.693,0.229-1.194,0.229c-0.488,0-0.855-0.053-1.098-0.158
				c-0.245-0.107-0.367-0.3-0.367-0.581c0-0.191,0.057-0.339,0.174-0.443c0.116-0.104,0.288-0.156,0.515-0.156
				c0.09,0,0.178,0.013,0.263,0.038c0.106,0.024,0.197,0.036,0.274,0.036c0.191,0,0.342-0.028,0.452-0.086
				c0.11-0.057,0.208-0.155,0.296-0.296C233.906,483.646,234.007,483.438,234.121,483.166z"/>
		</g>
		<g>
			<path style="fill:#3E465E;" d="M258.271,476.324h0.397v-0.5c0-0.524,0.064-0.937,0.197-1.246
				c0.131-0.308,0.357-0.531,0.673-0.672c0.315-0.139,0.748-0.21,1.297-0.21c0.977,0,1.461,0.236,1.461,0.716
				c0,0.153-0.051,0.286-0.154,0.395c-0.099,0.109-0.22,0.165-0.359,0.165c-0.064,0-0.179-0.012-0.339-0.038
				c-0.152-0.021-0.291-0.036-0.401-0.036c-0.301,0-0.493,0.09-0.582,0.267c-0.082,0.177-0.126,0.43-0.126,0.762v0.397h0.407
				c0.637,0,0.953,0.191,0.953,0.576c0,0.269-0.082,0.444-0.253,0.517c-0.168,0.073-0.401,0.11-0.7,0.11h-0.407v4.418
				c0,0.328-0.077,0.579-0.237,0.751c-0.155,0.175-0.356,0.261-0.606,0.261c-0.236,0-0.431-0.086-0.59-0.261
				c-0.157-0.172-0.234-0.422-0.234-0.751v-4.418h-0.459c-0.25,0-0.439-0.054-0.574-0.168c-0.134-0.11-0.202-0.257-0.202-0.436
				C257.433,476.522,257.712,476.324,258.271,476.324"/>
			<path style="fill:#3E465E;" d="M263.729,480.551v1.394c0,0.337-0.085,0.591-0.24,0.758c-0.159,0.171-0.359,0.254-0.603,0.254
				c-0.246,0-0.442-0.084-0.596-0.257c-0.152-0.17-0.232-0.422-0.232-0.755v-4.644c0-0.75,0.27-1.124,0.811-1.124
				c0.279,0,0.478,0.087,0.6,0.262c0.122,0.176,0.19,0.433,0.204,0.777c0.198-0.344,0.401-0.601,0.61-0.777
				c0.214-0.176,0.49-0.262,0.842-0.262c0.353,0,0.689,0.087,1.019,0.262c0.331,0.176,0.496,0.409,0.496,0.698
				c0,0.202-0.071,0.373-0.21,0.502c-0.141,0.134-0.292,0.2-0.454,0.2c-0.064,0-0.213-0.04-0.445-0.115
				c-0.235-0.073-0.443-0.111-0.619-0.111c-0.244,0-0.445,0.066-0.599,0.191c-0.156,0.132-0.277,0.32-0.363,0.57
				c-0.083,0.254-0.141,0.556-0.175,0.903C263.743,479.625,263.729,480.05,263.729,480.551"/>
			<path style="fill:#3E465E;" d="M271.393,479.977h-3.262c0.006,0.378,0.08,0.714,0.228,1.002c0.151,0.287,0.347,0.505,0.595,0.654
				c0.247,0.146,0.517,0.219,0.815,0.219c0.2,0,0.381-0.021,0.546-0.072c0.163-0.045,0.325-0.119,0.479-0.219
				c0.156-0.098,0.296-0.205,0.427-0.322c0.13-0.112,0.3-0.267,0.508-0.462c0.087-0.073,0.208-0.112,0.365-0.112
				c0.173,0,0.31,0.048,0.418,0.143c0.107,0.095,0.156,0.225,0.156,0.397c0,0.151-0.057,0.327-0.172,0.527
				c-0.121,0.204-0.298,0.396-0.538,0.583c-0.24,0.183-0.539,0.339-0.898,0.459c-0.36,0.122-0.775,0.184-1.242,0.184
				c-1.074,0-1.906-0.304-2.499-0.914c-0.594-0.612-0.895-1.442-0.895-2.487c0-0.493,0.075-0.951,0.223-1.372
				c0.144-0.423,0.359-0.782,0.642-1.085c0.28-0.303,0.624-0.533,1.037-0.693c0.41-0.16,0.866-0.241,1.368-0.241
				c0.65,0,1.209,0.138,1.676,0.415c0.465,0.272,0.819,0.628,1.047,1.064c0.232,0.438,0.348,0.88,0.348,1.334
				c0,0.417-0.121,0.688-0.361,0.814C272.166,479.915,271.829,479.977,271.393,479.977 M268.131,479.029h3.023
				c-0.04-0.569-0.191-0.996-0.459-1.277c-0.269-0.284-0.616-0.424-1.055-0.424c-0.415,0-0.757,0.141-1.023,0.43
				C268.35,478.044,268.187,478.468,268.131,479.029"/>
			<path style="fill:#3E465E;" d="M278.329,479.977h-3.262c0.004,0.378,0.08,0.714,0.228,1.002c0.149,0.287,0.346,0.505,0.592,0.654
				c0.246,0.146,0.518,0.219,0.817,0.219c0.198,0,0.381-0.021,0.543-0.072c0.166-0.045,0.325-0.119,0.482-0.219
				c0.156-0.098,0.296-0.205,0.427-0.322c0.128-0.112,0.298-0.267,0.507-0.462c0.087-0.073,0.21-0.112,0.366-0.112
				c0.173,0,0.311,0.048,0.418,0.143c0.106,0.095,0.155,0.225,0.155,0.397c0,0.151-0.056,0.327-0.176,0.527
				c-0.114,0.204-0.293,0.396-0.534,0.583c-0.238,0.183-0.54,0.339-0.897,0.459c-0.358,0.122-0.777,0.184-1.244,0.184
				c-1.072,0-1.902-0.304-2.499-0.914c-0.594-0.612-0.893-1.442-0.893-2.487c0-0.493,0.075-0.951,0.224-1.372
				c0.146-0.423,0.359-0.782,0.64-1.085c0.28-0.303,0.625-0.533,1.038-0.693c0.41-0.16,0.868-0.241,1.369-0.241
				c0.649,0,1.207,0.138,1.68,0.415c0.463,0.272,0.814,0.628,1.042,1.064c0.231,0.438,0.35,0.88,0.35,1.334
				c0,0.417-0.123,0.688-0.361,0.814C279.1,479.915,278.763,479.977,278.329,479.977 M275.067,479.029h3.023
				c-0.041-0.569-0.195-0.996-0.46-1.277c-0.271-0.284-0.618-0.424-1.056-0.424c-0.415,0-0.756,0.141-1.024,0.43
				C275.284,478.044,275.121,478.468,275.067,479.029"/>
			<path style="fill:#3E465E;" d="M281.98,477.115v0.2c0.313-0.386,0.639-0.67,0.98-0.851c0.334-0.183,0.719-0.274,1.146-0.274
				c0.511,0,0.987,0.134,1.419,0.397c0.431,0.266,0.77,0.653,1.021,1.161c0.251,0.511,0.377,1.112,0.377,1.809
				c0,0.512-0.072,0.984-0.216,1.415c-0.144,0.43-0.345,0.789-0.597,1.08c-0.253,0.29-0.55,0.516-0.893,0.673
				c-0.348,0.155-0.715,0.234-1.111,0.234c-0.475,0-0.877-0.095-1.199-0.288c-0.323-0.188-0.632-0.471-0.927-0.839v2.503
				c0,0.73-0.267,1.099-0.8,1.099c-0.315,0-0.52-0.094-0.625-0.283c-0.097-0.192-0.15-0.465-0.15-0.83v-7.197
				c0-0.318,0.068-0.552,0.206-0.712c0.138-0.154,0.329-0.234,0.569-0.234c0.237,0,0.428,0.08,0.576,0.24
				C281.908,476.58,281.98,476.809,281.98,477.115 M285.249,479.537c0-0.44-0.069-0.819-0.202-1.133
				c-0.134-0.316-0.321-0.558-0.557-0.725c-0.236-0.169-0.503-0.255-0.792-0.255c-0.459,0-0.848,0.183-1.163,0.543
				c-0.316,0.364-0.475,0.897-0.475,1.603c0,0.66,0.157,1.179,0.473,1.547c0.313,0.368,0.698,0.552,1.165,0.552
				c0.276,0,0.534-0.081,0.77-0.239c0.239-0.163,0.428-0.403,0.568-0.724C285.177,480.381,285.249,479.992,285.249,479.537"/>
			<path style="fill:#3E465E;" d="M288.602,475.4c-0.233,0-0.43-0.073-0.593-0.215c-0.167-0.143-0.249-0.342-0.249-0.602
				c0-0.237,0.084-0.431,0.255-0.585c0.168-0.151,0.364-0.229,0.588-0.229c0.219,0,0.409,0.069,0.575,0.205
				c0.167,0.141,0.251,0.343,0.251,0.608c0,0.257-0.082,0.457-0.243,0.602C289.022,475.327,288.828,475.4,288.602,475.4
				 M289.428,477.123v4.823c0,0.332-0.08,0.584-0.238,0.753c-0.161,0.173-0.36,0.257-0.605,0.257c-0.245,0-0.44-0.086-0.597-0.261
				c-0.15-0.178-0.228-0.427-0.228-0.75v-4.775c0-0.328,0.078-0.575,0.228-0.742c0.156-0.17,0.352-0.252,0.597-0.252
				c0.245,0,0.444,0.082,0.605,0.252C289.348,476.595,289.428,476.828,289.428,477.123"/>
			<path style="fill:#3E465E;" d="M294.803,482.196l-1.469-2.421l-0.905,0.854v1.328c0,0.321-0.085,0.567-0.255,0.739
				c-0.165,0.175-0.364,0.261-0.583,0.261c-0.256,0-0.46-0.084-0.605-0.257c-0.146-0.17-0.221-0.422-0.221-0.755v-7.113
				c0-0.369,0.073-0.65,0.213-0.845c0.143-0.196,0.35-0.291,0.613-0.291c0.257,0,0.458,0.088,0.61,0.264
				c0.151,0.174,0.227,0.433,0.227,0.773v4.046l1.875-1.969c0.233-0.242,0.407-0.412,0.532-0.5c0.122-0.089,0.269-0.134,0.443-0.134
				c0.21,0,0.382,0.066,0.524,0.198c0.136,0.132,0.206,0.299,0.206,0.497c0,0.244-0.227,0.571-0.678,0.978l-0.885,0.812l1.71,2.689
				c0.124,0.202,0.218,0.35,0.272,0.454c0.054,0.102,0.083,0.205,0.083,0.297c0,0.266-0.073,0.472-0.219,0.627
				c-0.144,0.152-0.337,0.227-0.57,0.227c-0.203,0-0.362-0.052-0.472-0.165C295.142,482.681,294.989,482.481,294.803,482.196"/>
			<path style="fill:#3E465E;" d="M298.426,482.957c-0.252,0-0.468-0.081-0.652-0.245c-0.183-0.16-0.276-0.389-0.276-0.684
				c0-0.248,0.089-0.462,0.264-0.64c0.176-0.18,0.391-0.269,0.648-0.269c0.255,0,0.473,0.09,0.657,0.265
				c0.18,0.177,0.271,0.394,0.271,0.644c0,0.291-0.092,0.519-0.271,0.681C298.883,482.876,298.67,482.957,298.426,482.957"/>
			<path style="fill:#3E465E;" d="M306.719,480.893c0,0.206-0.062,0.429-0.187,0.665c-0.123,0.238-0.314,0.462-0.569,0.675
				c-0.254,0.214-0.573,0.387-0.961,0.517c-0.386,0.13-0.823,0.197-1.305,0.197c-1.033,0-1.838-0.302-2.416-0.901
				c-0.576-0.601-0.865-1.408-0.865-2.417c0-0.686,0.131-1.29,0.398-1.816c0.262-0.524,0.645-0.931,1.145-1.218
				c0.501-0.288,1.103-0.431,1.796-0.431c0.433,0,0.828,0.063,1.191,0.19c0.36,0.126,0.664,0.29,0.916,0.488
				c0.249,0.202,0.441,0.414,0.572,0.638c0.133,0.226,0.198,0.438,0.198,0.635c0,0.198-0.073,0.367-0.22,0.506
				c-0.151,0.138-0.331,0.208-0.539,0.208c-0.141,0-0.256-0.036-0.348-0.107c-0.092-0.072-0.196-0.186-0.308-0.348
				c-0.204-0.308-0.416-0.541-0.64-0.694c-0.22-0.156-0.502-0.233-0.844-0.233c-0.49,0-0.89,0.192-1.192,0.577
				c-0.301,0.383-0.452,0.913-0.452,1.578c0,0.314,0.04,0.604,0.117,0.866c0.075,0.262,0.187,0.486,0.335,0.671
				c0.148,0.185,0.324,0.325,0.531,0.421c0.208,0.099,0.438,0.145,0.684,0.145c0.335,0,0.622-0.077,0.859-0.232
				c0.242-0.155,0.452-0.391,0.634-0.709c0.102-0.187,0.21-0.333,0.327-0.439c0.117-0.105,0.263-0.16,0.435-0.16
				c0.203,0,0.373,0.079,0.505,0.233C306.65,480.553,306.719,480.719,306.719,480.893"/>
			<path style="fill:#3E465E;" d="M313.913,479.568c0,0.495-0.078,0.954-0.229,1.375c-0.159,0.419-0.381,0.78-0.675,1.079
				c-0.293,0.301-0.644,0.532-1.049,0.694c-0.411,0.159-0.868,0.241-1.375,0.241c-0.505,0-0.96-0.082-1.364-0.246
				c-0.401-0.16-0.753-0.395-1.045-0.696c-0.296-0.306-0.52-0.665-0.676-1.078c-0.148-0.414-0.225-0.871-0.225-1.37
				c0-0.505,0.08-0.968,0.23-1.388c0.156-0.421,0.379-0.779,0.668-1.076c0.29-0.297,0.639-0.526,1.048-0.688
				c0.414-0.16,0.868-0.24,1.364-0.24c0.504,0,0.963,0.08,1.375,0.245c0.41,0.161,0.76,0.395,1.057,0.694
				c0.294,0.305,0.516,0.662,0.669,1.075C313.836,478.609,313.913,479.065,313.913,479.568 M312.24,479.568
				c0-0.681-0.151-1.209-0.449-1.587c-0.298-0.383-0.701-0.571-1.205-0.571c-0.326,0-0.614,0.085-0.863,0.253
				c-0.249,0.168-0.438,0.418-0.572,0.748c-0.134,0.33-0.203,0.716-0.203,1.157c0,0.436,0.066,0.815,0.199,1.14
				c0.134,0.328,0.323,0.577,0.569,0.75c0.248,0.171,0.537,0.26,0.87,0.26c0.504,0,0.907-0.19,1.205-0.573
				C312.089,480.765,312.24,480.238,312.24,479.568"/>
			<path style="fill:#3E465E;" d="M320.273,479.691v2.216c0,0.352-0.077,0.611-0.237,0.789c-0.161,0.175-0.367,0.263-0.629,0.263
				c-0.252,0-0.459-0.087-0.612-0.263c-0.159-0.178-0.239-0.438-0.239-0.789v-2.656c0-0.42-0.013-0.747-0.041-0.98
				c-0.029-0.227-0.108-0.421-0.233-0.568c-0.126-0.151-0.327-0.226-0.598-0.226c-0.547,0-0.905,0.187-1.078,0.566
				c-0.172,0.371-0.261,0.909-0.261,1.612v2.252c0,0.346-0.078,0.608-0.232,0.787c-0.16,0.176-0.365,0.265-0.62,0.265
				c-0.254,0-0.461-0.089-0.622-0.265c-0.162-0.178-0.242-0.441-0.242-0.787v-4.77c0-0.315,0.072-0.553,0.215-0.715
				c0.148-0.165,0.339-0.245,0.572-0.245c0.229,0,0.419,0.079,0.573,0.228c0.152,0.153,0.228,0.364,0.228,0.633v0.158
				c0.291-0.344,0.601-0.599,0.929-0.759c0.332-0.167,0.696-0.248,1.101-0.248c0.419,0,0.779,0.084,1.079,0.251
				c0.302,0.168,0.549,0.421,0.746,0.757c0.283-0.34,0.584-0.593,0.907-0.759c0.321-0.165,0.677-0.248,1.069-0.248
				c0.454,0,0.85,0.092,1.179,0.269c0.328,0.179,0.574,0.437,0.738,0.768c0.142,0.304,0.212,0.778,0.212,1.425v3.255
				c0,0.352-0.078,0.611-0.236,0.789c-0.158,0.175-0.37,0.263-0.63,0.263c-0.254,0-0.459-0.089-0.62-0.265
				c-0.161-0.178-0.242-0.441-0.242-0.787v-2.804c0-0.359-0.015-0.645-0.045-0.86c-0.03-0.217-0.114-0.399-0.246-0.544
				c-0.136-0.146-0.341-0.221-0.613-0.221c-0.22,0-0.428,0.069-0.626,0.198c-0.197,0.128-0.352,0.306-0.463,0.522
				C320.336,478.479,320.273,478.977,320.273,479.691"/>
		</g>
		<g>
			<path style="fill:#3E465E;" d="M242.668,479.164c-0.001-0.003-0.001-0.006-0.001-0.011
				C242.667,479.158,242.667,479.161,242.668,479.164z"/>
			<path style="fill:#3E465E;" d="M242.752,479.698c0.001,0,0.001,0,0.001,0c-0.031-0.152-0.056-0.303-0.076-0.451
				C242.697,479.396,242.722,479.547,242.752,479.698z"/>
			<path style="fill:#3E465E;" d="M243.304,481.245c-0.004-0.006-0.007-0.014-0.011-0.021
				C243.297,481.231,243.301,481.238,243.304,481.245z"/>
			<path style="fill:#3E465E;" d="M243.252,481.142c-0.015-0.028-0.028-0.058-0.042-0.086
				C243.223,481.086,243.237,481.113,243.252,481.142z"/>
			<path style="fill:#3E465E;" d="M242.908,480.293c0.082,0.257,0.18,0.507,0.294,0.745c-0.116-0.243-0.212-0.493-0.292-0.745
				C242.909,480.293,242.908,480.293,242.908,480.293z"/>
			<path style="fill:#3E465E;" d="M249.122,472.776c0.322,0,0.56,0.026,0.833,0.072l0.077-0.49c0,0-0.753-0.232-1.743-0.151
				l-0.078-0.267c0.308-0.065,0.539-0.338,0.539-0.665c0-0.374-0.305-0.677-0.68-0.677s-0.679,0.303-0.679,0.677
				c0,0.327,0.23,0.6,0.537,0.665l0.086,0.298c-1.051,0.144-1.887,0.554-1.887,0.554l0.148,0.453
				c0.636-0.212,1.187-0.34,1.687-0.394C248.453,472.799,248.821,472.776,249.122,472.776z"/>
			<path style="fill:#3E465E;" d="M243.292,475.257l0.004-0.005c0.025-0.032,0.049-0.062,0.073-0.092l-0.201-0.145l-0.314-0.229
				c-0.018,0.024-0.511,0.478-0.901,1.316c-0.016-0.026-0.036-0.052-0.058-0.077c-0.117-0.128-0.28-0.193-0.487-0.189
				c-0.003,0-0.006,0-0.01,0c-0.128,0-0.217-0.043-0.274-0.095c0.057-0.073,0.092-0.165,0.092-0.266c0-0.237-0.193-0.43-0.43-0.43
				c-0.237,0-0.43,0.193-0.43,0.43c0,0.238,0.193,0.43,0.43,0.43c0.037,0,0.073-0.006,0.107-0.013
				c0.106,0.117,0.273,0.22,0.519,0.215c0.127-0.001,0.219,0.031,0.281,0.1c0.071,0.078,0.095,0.19,0.103,0.275
				c-0.001,0.001-0.001,0.003-0.002,0.003c-0.28,0.765-0.2,1.716-0.2,1.716l0.68,0.027c0.014-0.347,0.063-0.953,0.239-1.434
				C242.851,475.864,243.274,475.281,243.292,475.257z"/>
			<path style="fill:#3E465E;" d="M255.036,473.344c-0.237,0-0.43,0.192-0.43,0.43c0,0.037,0.006,0.072,0.015,0.106
				c-0.118,0.107-0.22,0.275-0.217,0.521c0.002,0.127-0.031,0.219-0.099,0.281c-0.055,0.048-0.123,0.074-0.19,0.091
				c-0.506-0.709-1.129-1.142-1.129-1.142l-0.488,0.523c0.369,0.335,0.745,0.755,1.111,1.28c0.253,0.362,0.514,0.829,0.73,1.295
				l0.659-0.313c0,0-0.301-0.743-0.724-1.409c0.074-0.026,0.148-0.066,0.213-0.124c0.129-0.116,0.192-0.281,0.188-0.487
				c-0.001-0.134,0.043-0.224,0.096-0.284c0.073,0.056,0.165,0.092,0.265,0.092c0.239,0,0.431-0.193,0.431-0.43
				C255.467,473.536,255.275,473.344,255.036,473.344z"/>
			<path style="fill:#3E465E;" d="M253.328,479.261c-0.906,0.441-2.397,1.025-4.36,1.298c-0.77,0.107-1.517,0.146-2.204,0.146
				c-0.894,0-1.684-0.066-2.291-0.143c-0.692-0.087-1.233-0.194-1.564-0.269c0.079,0.252,0.176,0.502,0.292,0.745
				c0.002,0.006,0.005,0.013,0.008,0.018c0.014,0.028,0.028,0.058,0.042,0.086c0.014,0.028,0.028,0.056,0.042,0.082
				c0.004,0.008,0.007,0.015,0.011,0.021c0.195,0.367,0.429,0.704,0.695,0.996c0.926,1.013,1.869,1.173,1.878,1.174l0.015,0.002
				l0.014,0.005c0.008,0.003,0.845,0.273,2.116,0.273c1.251,0,2.478-0.252,3.648-0.75c0.866-0.443,1.686-1.116,2.092-1.717
				c0.314-0.465,0.541-0.96,0.675-1.475c0.072-0.274,0.128-0.712,0.095-1.174C254.277,478.751,253.873,478.995,253.328,479.261z"/>
			<path style="fill:#3E465E;" d="M243.583,475.471c-0.026,0.038-0.419,0.595-0.73,1.448c-0.233,0.64-0.222,1.571-0.222,1.582v0.002
				c0,0.219,0.012,0.435,0.036,0.65c0,0.005,0,0.008,0.001,0.011c0.003,0.028,0.007,0.054,0.01,0.082
				c0.02,0.149,0.044,0.299,0.076,0.451c0.45,0.114,3.136,0.741,6.139,0.323c1.882-0.262,3.311-0.818,4.179-1.239
				c0.721-0.35,1.184-0.666,1.363-0.796c-0.178-0.661-0.67-1.698-1.121-2.344c-1.289-1.842-2.679-2.315-3.393-2.432
				c-0.272-0.044-0.49-0.07-0.799-0.07c-0.288,0-0.644,0.023-1.121,0.073c-0.478,0.05-1.011,0.175-1.628,0.383
				c-0.867,0.29-1.651,0.745-2.268,1.317l-0.021,0.02C243.993,475.015,243.802,475.192,243.583,475.471z M251.471,475.043
				c0.618,0,1.121,0.502,1.121,1.121c0,0.618-0.503,1.121-1.121,1.121c-0.618,0-1.12-0.503-1.12-1.121
				C250.351,475.545,250.853,475.043,251.471,475.043z M246.172,474.998c1.001,0,1.811,0.811,1.811,1.811c0,1-0.81,1.81-1.811,1.81
				c-0.999,0-1.81-0.809-1.81-1.81C244.362,475.809,245.173,474.998,246.172,474.998z"/>
		</g>
	</g>
</g>
</svg>
